<svg width="34" height="34" viewBox="0 0 34 34" fill="none" xmlns="http://www.w3.org/2000/svg">
<g clip-path="url(#clip0_124_185)">
<path d="M17.0002 8.5C15.8794 8.5 14.7838 8.83234 13.8519 9.45501C12.9201 10.0777 12.1937 10.9627 11.7648 11.9981C11.336 13.0336 11.2237 14.173 11.4424 15.2722C11.661 16.3714 12.2007 17.3811 12.9932 18.1736C13.7857 18.9661 14.7954 19.5058 15.8947 19.7245C16.9939 19.9431 18.1333 19.8309 19.1687 19.402C20.2042 18.9731 21.0892 18.2468 21.7118 17.3149C22.3345 16.383 22.6668 15.2874 22.6668 14.1667C22.6668 12.6638 22.0698 11.2224 21.0071 10.1597C19.9444 9.09702 18.5031 8.5 17.0002 8.5ZM17.0002 17C16.4398 17 15.892 16.8338 15.4261 16.5225C14.9601 16.2112 14.597 15.7687 14.3825 15.2509C14.1681 14.7332 14.1119 14.1635 14.2213 13.6139C14.3306 13.0643 14.6004 12.5594 14.9967 12.1632C15.3929 11.7669 15.8978 11.4971 16.4474 11.3878C16.997 11.2785 17.5667 11.3346 18.0844 11.549C18.6022 11.7635 19.0447 12.1266 19.356 12.5926C19.6673 13.0585 19.8335 13.6063 19.8335 14.1667C19.8335 14.9181 19.535 15.6388 19.0036 16.1701C18.4723 16.7015 17.7516 17 17.0002 17Z" fill="white"/>
<path d="M17 34C15.807 34.0061 14.63 33.7263 13.5675 33.1841C12.5049 32.6418 11.5877 31.8529 10.8927 30.8834C5.49379 23.4359 2.75537 17.8373 2.75537 14.2418C2.75537 10.4639 4.25614 6.84071 6.92751 4.16933C9.59889 1.49796 13.2221 -0.00280762 17 -0.00280762C20.7779 -0.00280762 24.401 1.49796 27.0724 4.16933C29.7438 6.84071 31.2445 10.4639 31.2445 14.2418C31.2445 17.8373 28.5061 23.4359 23.1072 30.8834C22.4122 31.8529 21.495 32.6418 20.4324 33.1841C19.3699 33.7263 18.1929 34.0061 17 34ZM17 3.08978C14.0425 3.09315 11.2072 4.26947 9.11602 6.36068C7.02482 8.45188 5.8485 11.2872 5.84512 14.2446C5.84512 17.0921 8.52687 22.3579 13.3945 29.0714C13.8078 29.6406 14.3499 30.1039 14.9765 30.4233C15.6032 30.7428 16.2966 30.9093 17 30.9093C17.7033 30.9093 18.3967 30.7428 19.0234 30.4233C19.65 30.1039 20.1921 29.6406 20.6054 29.0714C25.473 22.3579 28.1548 17.0921 28.1548 14.2446C28.1514 11.2872 26.9751 8.45188 24.8839 6.36068C22.7927 4.26947 19.9574 3.09315 17 3.08978Z" fill="white"/>
</g>
<defs>
<clipPath id="clip0_124_185">
<rect width="34" height="34" fill="white"/>
</clipPath>
</defs>
</svg>
