<svg width="332" height="91" viewBox="0 0 332 91" fill="none" xmlns="http://www.w3.org/2000/svg">
<g clip-path="url(#clip0_124_388)">
<path d="M95.8957 42.9038C95.8957 42.9038 95.8957 44.4263 95.8957 45.129C95.8957 49.7747 95.8957 60.3543 95.8957 61.0179H91.4409C91.4018 60.4323 91.2846 41.8498 91.3627 33.2221C91.3627 30.6065 91.7926 27.9909 93.1212 25.6486C98.0449 16.7477 111.722 16.9038 115.356 28.2642C115.825 29.7867 116.06 31.3483 115.942 32.9098C115.786 35.3693 115.083 37.7116 113.324 39.7026C111.683 41.5765 110.393 42.3963 108.088 43.2161C107.541 43.4113 106.173 43.6456 105.626 43.8407C105.235 43.9579 104.883 44.0359 105.118 44.8167C105.391 45.6756 106.29 46.5735 106.798 47.2371C109.416 50.7897 116.138 60.042 116.841 61.0179H111.136C109.846 59.3783 108.557 57.6996 107.267 56.0209C104.336 52.1561 101.406 48.2522 98.4748 44.3873C98.0058 43.7627 97.6151 42.9038 95.8957 42.9038ZM104.141 39.7416C105.704 39.7416 107.384 39.1951 108.479 38.1801C111.058 35.7597 112.113 32.7927 111.058 29.3573C110.003 25.8828 107.384 23.8918 103.985 23.9699C99.608 24.087 96.2083 27.5615 96.3646 32.129C96.5209 37.2822 100.233 39.5465 104.141 39.7416Z" fill="white"/>
<path d="M198.864 54.9279C199.645 55.8649 200.388 56.7628 201.209 57.6997C200.153 58.9099 198.864 59.6907 197.457 60.2372C192.416 62.2282 187.649 61.7988 183.507 58.1682C180.81 55.8258 179.169 52.8198 179.052 49.1111C178.974 46.6126 179.091 44.2312 180.419 42.006C182.881 37.8679 186.516 35.6036 191.361 35.3694C196.949 35.0961 201.052 37.6336 203.866 42.2793C205.194 44.4655 205.702 47.003 205.429 49.7357C205.429 49.7357 194.487 49.7357 189.954 49.7357C188.391 49.7357 186.789 49.6967 185.226 49.8138C183.976 49.9309 183.507 50.8288 183.897 52.0781C184.054 52.5465 184.249 53.0541 184.562 53.4054C187.649 57.1141 191.439 58.7147 196.285 56.3724C197.105 56.021 197.848 55.5135 198.864 54.9279ZM200.544 44.7387C200.349 43.2553 199.333 42.1231 198.161 41.1862C195.972 39.3904 193.432 38.9219 190.736 39.3904C188.508 39.7808 186.711 41.03 185.304 42.7868C184.64 43.6066 183.858 44.973 184.952 45.8709C185.304 46.1441 187.883 45.9099 188.391 45.9099C192.651 45.949 194.605 45.949 198.864 45.9099C200.153 45.9099 200.661 45.7928 200.544 44.7387Z" fill="white"/>
<path d="M145.446 49.6574H125.087C123.484 49.6574 123.328 51.8827 124.188 53.1319C125.516 55.0448 127.314 56.4502 129.58 57.192C132.199 58.0118 134.543 57.231 136.81 56.0208C137.396 55.7085 137.943 55.3181 138.607 54.9277C139.389 55.8647 140.131 56.7626 140.952 57.6995C140.405 58.5974 139.506 58.9878 138.724 59.4562C133.527 62.5403 126.923 61.9157 122.664 57.6214C119.03 53.9517 118.092 49.5013 119.225 44.6605C120.358 39.7806 125.204 35.8376 130.206 35.4082C136.145 34.9007 140.678 37.243 143.726 42.3181C145.016 44.5043 145.758 46.9247 145.446 49.6574ZM140.483 45.7535C140.17 43.6454 139.232 42.24 137.826 41.1079C136.067 39.6635 133.996 39.1169 131.73 39.234C128.603 39.3902 126.376 40.9517 124.579 43.3722C124.071 44.0749 123.875 44.8947 124.422 45.8707C124.813 45.9487 125.282 46.1049 125.79 46.1049C130.088 46.1049 134.426 46.1439 138.724 46.1049C139.272 46.1049 139.78 45.9097 140.483 45.7535Z" fill="white"/>
<path d="M230.009 18.9338H233.917L233.956 34.7446C234.112 36.5404 234.503 36.6185 235.362 36.2672C237.199 35.5645 239.075 35.135 241.029 34.9789C243.139 34.8227 245.366 35.1741 247.164 36.3843C250.173 38.4143 251.931 41.2642 251.892 44.9729C251.853 49.7356 251.892 60.9398 251.892 60.9398H247.476C247.476 60.9398 247.398 51.1801 247.398 47.2371C247.398 45.5585 247.164 43.9188 246.421 42.3573C244.975 39.4684 242.357 38.2972 239.27 39.2732C237.16 39.9368 235.441 41.1471 234.385 43.099C233.643 44.5044 233.956 46.105 233.917 47.6666C233.917 51.3362 233.917 60.9398 233.917 60.9398H229.97L230.009 18.9338Z" fill="white"/>
<path d="M269.203 35.3692C276.511 35.0179 282.216 41.6155 282.255 48.2911C282.294 55.4743 276.55 61.3302 269.399 61.4083C261.974 61.4863 256.034 54.9668 255.995 48.3302C255.995 41.3032 262.208 34.9788 269.203 35.3692ZM269.399 39.2731C265.022 38.8827 260.176 42.5134 260.137 48.2131C260.137 53.3272 263.772 57.3482 269.203 57.4263C274.752 57.5044 278.191 52.8197 278.347 48.2521C278.582 43.4503 273.932 38.8437 269.399 39.2731Z" fill="white"/>
<path d="M163.382 19.5975C163.382 20.9248 163.382 22.2131 163.382 23.4233C162.249 24.087 161.194 24.5945 160.217 25.2582C157.677 26.9759 156.544 29.5525 156.192 32.4804C156.036 33.7296 156.622 34.12 157.872 34.4323C158.419 34.5885 162.21 34.4323 162.21 34.4323V38.2191C161.155 38.2582 159.943 38.3753 158.927 38.3753C156.7 38.4534 156.075 39.3513 156.075 41.5765C156.075 47.3933 156.153 60.9398 156.153 60.9398H151.503C151.503 60.9398 151.542 47.8618 151.542 42.2011C151.542 41.7717 151.581 41.3032 151.542 40.8738C151.424 39.5855 150.76 38.8437 149.431 38.6485C148.767 38.5705 147.986 38.4143 147.243 38.3753V34.4323H151.307C151.464 33.5344 151.698 32.4413 151.854 31.4263C152.401 27.2882 154.433 24.126 157.911 21.8227C159.513 20.7296 161.155 19.4804 163.382 19.5975Z" fill="white"/>
<path d="M223.952 41.147L220.083 40.132C218.52 37.2431 215.238 37.7116 214.3 39.7807C213.518 41.4593 213.987 42.6696 215.55 43.6455C216.918 44.5044 218.364 44.9338 219.888 45.4804C221.646 46.105 223.17 46.8077 224.46 48.2521C225.359 49.2671 225.71 50.4383 225.749 51.7657C225.789 52.9368 225.789 54.147 225.515 55.2401C224.733 58.3242 221.49 60.8617 218.247 61.0179C217.192 61.0569 216.097 61.135 215.081 60.9008C211.252 60.0419 208.985 57.5825 208.087 53.8347C207.969 53.2491 207.891 52.3122 207.774 51.5705L212.111 52.8587C212.19 53.132 211.76 55.7867 214.3 56.9969C216.488 57.8948 218.559 57.7777 220.474 56.2551C220.826 55.9819 221.138 55.6305 221.373 55.2792C222.467 53.5614 222.428 51.8828 220.826 50.6726C219.771 49.8527 218.247 49.4233 217.035 48.8768C215.668 48.2521 214.417 47.9008 213.049 47.2371C212.229 46.8077 211.447 46.1831 210.822 45.5194C209.103 43.7626 209.337 40.0149 211.095 37.9458C214.026 34.3933 219.849 34.0419 222.897 38.4924C223.327 39.117 223.522 40.0149 223.952 41.147Z" fill="white"/>
<path d="M305.115 54.9279C305.896 55.8649 306.639 56.7628 307.46 57.6997C306.404 58.9099 305.115 59.6907 303.708 60.2372C298.667 62.2282 293.9 61.7988 289.758 58.1682C287.061 55.8258 285.42 52.8198 285.303 49.1111C285.225 46.6126 285.342 44.2312 286.67 42.006C289.132 37.8679 292.767 35.6036 297.612 35.3694C303.2 35.0961 307.303 37.6336 310.117 42.2793C311.445 44.4655 311.953 47.003 311.68 49.7357C311.68 49.7357 300.738 49.7357 296.205 49.7357C294.642 49.7357 293.04 49.6967 291.477 49.8138C290.227 49.9309 289.758 50.8288 290.148 52.0781C290.305 52.5465 290.5 53.0541 290.813 53.4054C293.9 57.1141 297.69 58.7147 302.536 56.3724C303.396 56.021 304.138 55.5135 305.115 54.9279ZM306.795 44.7387C306.6 43.2553 305.584 42.1231 304.412 41.1862C302.223 39.3904 299.683 38.9219 296.987 39.3904C294.759 39.7808 292.962 41.03 291.555 42.7868C290.891 43.6066 290.109 44.973 291.203 45.8709C291.555 46.1441 294.134 45.9099 294.642 45.9099C298.902 45.949 300.855 45.949 305.115 45.9099C306.444 45.9099 306.952 45.7928 306.795 44.7387Z" fill="white"/>
<path d="M330.203 41.147L326.334 40.132C324.771 37.2431 321.489 37.7116 320.551 39.7807C319.769 41.4593 320.238 42.6696 321.801 43.6455C323.169 44.5044 324.615 44.9338 326.139 45.4804C327.897 46.105 329.421 46.8077 330.711 48.2521C331.61 49.2671 331.961 50.4383 332 51.7657C332.039 52.9368 332.04 54.147 331.766 55.2401C330.984 58.3242 327.741 60.8617 324.498 61.0179C323.443 61.0569 322.348 61.135 321.332 60.9008C317.503 60.0419 315.236 57.5825 314.338 53.8347C314.22 53.2491 314.142 52.3122 314.025 51.5705L318.362 52.8587C318.441 53.132 318.011 55.7867 320.551 56.9969C322.739 57.8948 324.81 57.7777 326.725 56.2551C327.077 55.9819 327.389 55.6305 327.624 55.2792C328.718 53.5614 328.679 51.8828 327.077 50.6726C326.022 49.8527 324.498 49.4233 323.286 48.8768C321.919 48.2521 320.668 47.9008 319.3 47.2371C318.48 46.8077 317.698 46.1831 317.073 45.5194C315.354 43.7626 315.588 40.0149 317.346 37.9458C320.277 34.3933 326.1 34.0419 329.148 38.4924C329.578 39.117 329.773 40.0149 330.203 41.147Z" fill="white"/>
<path d="M169.244 60.9398C167.798 60.9398 166.547 60.9398 165.297 60.9398C165.297 60.9398 165.258 50.8678 165.336 46.6906C165.375 45.3242 165.531 43.9188 165.844 42.5525C166.665 39.2732 168.931 37.2041 171.901 35.7987C173.464 35.057 175.418 34.9398 177.215 34.7837V38.8047C176.59 38.8828 176.082 38.8828 175.613 38.9609C173.542 39.2341 171.94 40.132 170.885 42.0059C169.83 43.9188 169.244 45.9098 169.244 48.057C169.244 51.6876 169.244 60.9398 169.244 60.9398Z" fill="white"/>
<path d="M72.7228 45.3244C72.0585 46.2223 71.1206 46.5737 70.0655 46.7298C68.6588 46.925 67.3301 46.6517 66.0797 46.0662C65.5326 45.8319 64.9464 45.5586 64.3993 45.2854C64.243 45.2073 64.0867 45.1683 63.8913 45.0902C63.8523 45.3244 63.8132 45.5196 63.7741 45.7148C63.5396 46.964 63.1489 48.1352 62.6018 49.2283C61.4295 51.6878 59.9055 53.913 57.9516 55.7869C57.3264 56.3725 56.6621 56.919 55.9196 57.3875C55.7633 57.4656 55.607 57.5436 55.3725 57.6607C55.4116 57.3484 55.4507 57.1142 55.4897 56.88C55.646 55.943 55.8023 55.0061 55.9587 54.0692C56.2322 52.3905 56.2713 50.6728 56.154 48.9941C56.0368 47.2764 55.7633 45.5977 55.2553 43.958C54.4737 41.3424 53.2623 38.961 51.5039 36.8529C50.7614 35.955 49.9017 35.1743 48.9638 34.4325C48.8075 34.3154 48.6512 34.2373 48.4949 34.1202C48.4558 34.0812 48.4168 34.0812 48.3386 34.0421C48.3777 34.1202 48.3777 34.1983 48.3777 34.2373C49.5891 36.9701 50.4488 39.8199 51.074 42.7478C51.4257 44.3875 51.6992 46.0662 51.8556 47.7448C52.0119 49.3064 52.0509 50.868 51.9337 52.4295C51.7774 54.7719 51.3475 57.0361 50.3706 59.2223C49.1983 61.877 47.4789 64.0631 45.2124 65.8589C44.8217 66.1713 44.3918 66.3665 44.001 66.6007C43.8838 66.6788 43.7666 66.6788 43.6493 66.7178C43.6493 66.2884 43.6884 65.898 43.6884 65.5466C43.8447 62.6187 43.962 59.6908 43.8838 56.7628C43.8447 54.7719 43.7666 52.7809 43.6493 50.7899C43.5321 48.7208 43.2976 46.6908 43.0241 44.6607C42.6724 42.2013 42.2035 39.7418 41.5392 37.3214C40.8749 34.9791 40.0152 32.7538 38.921 30.6067C38.4911 29.7478 37.905 28.9671 37.2798 28.2253C36.889 27.7568 36.4982 27.2493 36.1465 26.7028C36.3028 26.6637 36.381 26.7418 36.4982 26.7809C37.0844 27.1322 37.7096 27.4445 38.2958 27.8349C39.6635 28.7719 40.9139 29.8259 42.0081 30.9971C42.6724 31.6998 43.2195 32.5196 43.6103 33.4175C43.6884 33.5737 43.7275 33.6908 43.8056 33.8469C43.8056 33.8469 43.8447 33.886 43.8838 33.886C43.8838 33.7298 43.9229 33.5737 43.9229 33.4565C43.962 32.2854 43.7666 31.1923 43.3367 30.0992C42.3598 27.5226 40.8358 25.3364 38.7647 23.5406C37.9441 22.8379 37.0844 22.1743 36.2247 21.5106C36.1465 21.4716 36.1074 21.4325 36.0684 21.3544C36.4201 21.0031 36.8108 20.7298 37.1234 20.3394C37.397 19.9881 37.5924 19.5196 37.8659 19.0902C38.1004 19.1292 38.3739 19.1683 38.6475 19.2073C39.4681 19.3634 40.2496 19.6758 41.0312 20.0271C41.5392 20.2613 42.0472 20.4565 42.5943 20.6908C42.7115 20.7298 42.7896 20.7689 42.985 20.8079C42.9069 20.6517 42.8678 20.5346 42.7896 20.4175C42.3207 19.6367 41.6955 19.0121 40.9921 18.5046C39.8588 17.6457 38.5693 17.0992 37.1234 16.9821C37.0844 16.9821 37.0844 16.9821 37.0062 16.943C36.9671 15.8499 36.9281 14.7178 36.889 13.5466C37.2016 13.5857 37.4751 13.5857 37.7096 13.6247C41.7346 14.2493 45.5641 15.5767 49.1592 17.4505C50.3315 18.0752 51.4257 18.8559 52.4808 19.6758C54.4737 21.1592 56.3104 22.8379 57.8734 24.7508C59.6319 26.8589 60.9996 29.2403 62.0547 31.7779C62.719 33.3394 63.3443 34.94 64.0086 36.5016C64.6338 37.9851 65.3763 39.3905 66.3923 40.6397C67.6818 42.2403 69.2449 43.4505 71.0425 44.3875C71.5114 44.6217 71.9803 44.8559 72.4492 45.0511C72.5274 45.0902 72.6056 45.0902 72.6837 45.1292C72.7228 45.2463 72.7228 45.2854 72.7228 45.3244Z" fill="white"/>
<path d="M0 31.895C0.0390772 31.7779 0.117232 31.6217 0.156309 31.5046C0.27354 30.9971 0.508004 30.5677 0.781544 30.1382C1.28955 29.3184 1.91478 28.5376 2.5791 27.8349C4.37665 25.922 6.36959 24.2433 8.55791 22.7598C8.63606 22.7208 8.67514 22.6818 8.7533 22.6427C8.7533 22.6427 8.79237 22.6427 8.87053 22.6037C8.98776 22.7598 9.14407 22.955 9.30038 23.1112C9.73023 23.6577 10.1601 24.2043 10.629 24.7508C11.2152 25.4145 11.8795 26.0391 12.7001 26.4686C12.8173 26.5076 12.8955 26.5466 13.0518 26.6247C13.0518 26.5076 13.0518 26.4295 13.0127 26.3905C12.9736 26.2343 12.9346 26.1172 12.9346 25.961C12.8564 25.2583 13.0909 24.6728 13.677 24.2433C13.9896 24.0481 14.3023 23.8529 14.654 23.6968C14.9275 23.5406 15.2401 23.4235 15.5137 23.2674C15.6309 23.1893 15.7481 23.1112 15.8653 23.0331C15.201 22.6037 14.6149 22.6427 14.0678 23.0722C13.8724 23.2283 13.7161 23.3845 13.5207 23.5016C13.1299 23.7749 12.7001 23.9701 12.2312 24.0481C11.6841 24.1262 11.2152 23.9701 10.8635 23.5406C10.6681 23.2674 10.4727 22.9941 10.3164 22.7208C10.1601 22.4475 10.0428 22.1352 9.88653 21.8229C10.0038 21.7448 10.121 21.6668 10.2382 21.5887C11.0979 21.0812 11.9576 20.5346 12.7001 19.91C13.1299 19.5196 13.5207 19.1292 13.8333 18.6217C14.0287 18.2704 14.1069 18.0752 14.146 17.8019C13.4426 18.8169 12.6219 19.5196 11.2542 19.2463C11.3324 19.0902 11.3715 18.9731 11.4105 18.8559C11.7622 18.2704 12.153 17.6457 12.5438 17.0601C13.677 15.1082 15.3964 13.8199 17.3894 12.8049C18.4054 12.2974 19.4995 11.868 20.6328 11.7118C21.2189 11.6337 21.8442 11.5556 22.4694 11.6728C22.5476 11.907 22.5866 12.1412 22.6648 12.3755C22.7039 12.6097 22.8211 12.8049 23.0165 12.922C23.1337 13.0001 23.2509 13.1172 23.3682 13.1953C23.5636 13.3905 23.6026 13.4686 23.4073 13.7028C23.2509 13.898 23.0946 14.0932 22.8992 14.2884C22.5476 14.6397 22.1568 14.9911 21.8051 15.3815C21.5706 15.6547 21.2971 15.9671 21.1408 16.3184C20.75 17.0992 20.7891 17.8409 21.258 18.5827C21.4143 18.8559 21.6488 19.0511 21.8442 19.3244C22.0786 19.6367 22.3522 19.91 22.5866 20.2223C22.782 20.4956 22.8602 20.8079 22.9383 21.1202C22.9774 21.3154 22.9383 21.4325 22.8211 21.5496C22.5085 21.901 22.0786 22.1352 21.6097 22.2523C21.0235 22.4085 20.4374 22.5256 19.8903 22.6427C19.4605 22.7598 19.0697 22.877 18.6789 22.9941C18.5617 23.0331 18.4444 23.1112 18.2491 23.1893C18.8352 23.5016 19.4214 23.6577 20.0075 23.7358C21.3752 23.931 22.6648 23.6187 23.9153 23.0722C24.8531 22.6818 25.6737 22.1352 26.5334 21.5887C26.7288 21.4716 26.9633 21.3154 27.1977 21.1592C27.2759 21.2764 27.354 21.3544 27.3931 21.4716C27.5494 21.7448 27.6667 22.0571 27.823 22.2914C28.0184 22.6037 28.2137 22.916 28.4482 23.1893C28.7218 23.5016 29.0734 23.7358 29.4642 23.8529C29.7378 23.931 30.0113 24.0481 30.2848 24.1653C30.363 25.0241 30.4802 25.8439 30.5584 26.7028C30.6756 27.874 30.8319 29.0061 30.9492 30.1773C31.0664 31.2313 31.1836 32.3244 31.3008 33.3785C31.3399 33.8469 31.379 34.3154 31.4572 34.7839C31.4962 34.9791 31.4181 35.0571 31.2618 35.0962C30.5193 35.4085 29.8941 35.2523 29.4251 34.5887C29.0344 34.0812 28.839 33.4956 28.6827 32.871C28.5264 32.1683 28.4091 31.4656 28.2528 30.7628C28.1747 30.3725 28.0574 29.9821 27.9011 29.5917C27.315 28.2253 26.2599 27.5616 24.814 27.4836C23.4854 27.4055 22.274 27.7959 21.1798 28.4986C20.5546 28.889 19.9685 29.3574 19.3823 29.7869C18.9524 30.0601 18.5226 30.3725 18.0537 30.6067C17.194 31.0752 16.2952 31.0752 15.3964 30.6848C14.8103 30.4505 14.3413 30.0601 13.8333 29.6698C13.7552 29.5917 13.677 29.5526 13.5207 29.4355C13.5598 29.5917 13.5989 29.6698 13.6379 29.7478C14.3413 30.919 15.3573 31.6217 16.725 31.895C17.6629 32.0511 18.5226 31.895 19.3823 31.5046C19.734 31.3484 20.0857 31.1532 20.4374 30.9971C21.8832 30.2944 23.2509 30.5286 24.4623 31.5436C25.6737 32.5586 26.2599 33.886 26.338 35.4475C26.4162 36.892 25.9863 38.2193 25.283 39.4686C24.2669 41.2253 22.8602 42.5917 21.1017 43.5677C20.9454 43.6457 20.7891 43.7238 20.5937 43.8019L20.5546 43.7628C20.6328 43.5677 20.7109 43.3725 20.7891 43.1382C21.0235 42.5526 21.258 42.0061 21.4534 41.4205C21.6488 40.913 21.7269 40.3665 21.6097 39.7809C21.4925 38.961 21.0626 38.3364 20.3202 37.907C19.4995 37.4776 18.6398 37.3604 17.7411 37.3214C17.2721 37.2824 16.7641 37.3214 16.2561 37.3214C16.686 36.4235 17.4675 35.9941 18.3272 35.6818C17.9364 35.6818 17.5847 35.7208 17.2331 35.8379C15.709 36.3454 14.4586 37.2043 13.7552 38.6878C13.2081 39.8199 13.2863 40.952 13.9896 42.0451C14.146 42.2794 14.2632 42.4746 14.4195 42.7088C14.9275 43.5677 14.7321 44.4265 13.9896 45.0511C13.169 45.7148 11.7232 45.7929 10.8244 45.0902C10.4336 44.7779 10.121 44.3875 9.80838 43.9971C9.69115 43.8019 9.53484 43.6457 9.33945 43.4896C9.33945 43.6457 9.30038 43.8019 9.30038 43.958C9.22222 44.3484 9.18314 44.7779 9.10499 45.1683C9.06591 45.3244 8.98776 45.5196 8.9096 45.6758C8.7533 45.949 8.47976 46.0271 8.20621 45.871C7.97175 45.7538 7.77637 45.5586 7.58098 45.4025C7.34652 45.1683 7.15113 44.934 6.91667 44.6607C6.72128 44.8559 6.56497 45.0902 6.5259 45.3634C6.48682 45.5977 6.48682 45.871 6.44774 46.1833C6.29143 46.1052 6.1742 46.0662 6.05697 45.9881C5.74435 45.7538 5.39266 45.4806 5.11911 45.2073C4.22034 44.2704 3.63418 43.1382 3.39972 41.889C3.32156 41.4595 3.24341 41.0301 3.36064 40.5616C3.43879 40.5616 3.51695 40.5226 3.63418 40.5226C4.96281 40.5616 6.29143 40.5616 7.62006 40.6007C7.8936 40.6007 8.20621 40.6397 8.47976 40.6788C8.90961 40.7178 9.2613 40.913 9.53484 41.2253C9.7693 41.4595 10.0038 41.7328 10.2382 42.0061C10.4336 42.2013 10.629 42.4355 10.8635 42.5917C11.0198 42.7088 11.2152 42.7869 11.4496 42.7869C11.6841 42.3965 11.645 42.0061 11.4496 41.6157C11.2933 41.2643 11.0589 40.9911 10.7462 40.7568C9.73023 39.937 8.59699 39.3905 7.30744 39.1172C6.56497 38.961 5.86158 38.883 5.11911 38.7659C4.96281 38.7268 4.8065 38.6878 4.61111 38.6487C3.9468 38.4926 3.51695 38.0632 3.36064 37.3995C3.24341 36.9701 3.20433 36.5406 3.20433 36.0331C4.41573 35.6818 5.47081 35.1352 6.01789 33.925C6.36959 33.1052 6.44774 32.2463 6.33051 31.2704C6.21328 31.3875 6.09605 31.4656 6.05697 31.5436C5.50989 32.1292 4.8065 32.4025 4.02495 32.4806C2.7354 32.6367 1.48493 32.4415 0.27354 32.0511C0.234463 32.0511 0.156309 32.0121 0.117232 32.0121C0 32.0121 0 31.934 0 31.895Z" fill="white"/>
<path d="M32.434 90.9999C32.1214 90.9219 31.8088 90.8828 31.5352 90.8048C28.878 90.2972 26.4552 89.3213 24.1496 87.9549C22.2349 86.8228 20.5155 85.4174 19.0696 83.7387C17.3893 81.8258 16.2951 79.5615 15.5136 77.1411C14.9274 75.3063 14.6539 73.4324 14.6148 71.4804C14.5757 69.4504 14.7711 67.4594 15.1228 65.4684C15.3963 63.9459 15.709 62.4234 15.9825 60.9008C15.9825 60.8228 16.0216 60.7057 16.0216 60.5495C15.709 60.7447 15.5136 60.9399 15.3182 61.1351C14.5757 61.9549 13.9505 62.8918 13.4034 63.8678C12.4265 65.6246 11.7622 67.4984 11.4495 69.4894C11.2151 70.9339 11.2151 72.3783 11.3714 73.8228C11.684 76.4384 12.6219 78.8198 13.8723 81.1231C14.8493 82.9579 16.0216 84.6756 17.4284 86.2372C18.1317 87.018 18.8742 87.7597 19.6167 88.5405C19.773 88.6966 19.8902 88.8918 19.9684 89.1651C19.773 89.087 19.5776 89.048 19.4604 88.9699C18.757 88.6186 18.0927 88.2672 17.4284 87.8768C15.3573 86.6276 13.4425 85.1441 11.7622 83.3873C9.57384 81.045 7.93259 78.3903 7.03382 75.2672C6.48674 73.3543 6.33043 71.4023 6.3695 69.4114C6.40858 67.4204 6.83843 65.4684 7.50274 63.5945C7.73721 62.8918 7.93259 62.1891 8.12798 61.4864C8.12798 61.4084 8.16706 61.3693 8.16706 61.2522C7.93259 61.2132 7.69813 61.1741 7.46367 61.1351C6.52581 60.9789 5.62704 60.7057 4.80641 60.2372C3.98579 59.7687 3.32148 59.1051 3.00886 58.2072C2.93071 58.012 2.89163 57.7777 2.81348 57.5045C3.08702 57.5435 3.32148 57.5435 3.55594 57.5825C4.88457 57.7387 6.17412 57.8948 7.50274 57.8168C10.0428 57.6996 12.4265 57.1141 14.6148 55.7477C15.2791 55.3183 15.8653 54.8498 16.3733 54.2642C16.4123 54.2252 16.4514 54.1861 16.4905 54.1471C16.4905 54.1471 16.4905 54.1081 16.5296 54.069C16.256 54.03 15.9434 53.9519 15.6699 53.9129C14.8493 53.7567 14.1068 53.4834 13.4034 53.015C13.0126 52.7417 12.6609 52.4294 12.4265 51.9999C12.3874 51.9609 12.3874 51.8828 12.3483 51.8047C12.7782 51.8438 13.208 51.8828 13.5988 51.8828C16.4905 52.039 18.7179 50.8678 20.4373 48.6035C20.9453 47.9399 21.3752 47.2372 21.7659 46.4954C21.805 46.4174 21.8441 46.3393 21.9222 46.2222C22.1958 46.6906 22.3521 47.1591 22.5084 47.6276C22.7819 48.6426 22.8992 49.6576 22.9773 50.7117C23.0946 52.5075 23.0555 54.2642 22.9773 56.06C22.821 58.7537 22.4302 61.4084 21.6878 64.024C21.2579 65.5855 20.8281 67.1861 20.3982 68.7477C19.9684 70.5045 19.6558 72.3002 19.6558 74.096C19.6167 80.069 22.0004 84.7537 27.0023 88.1111C28.1746 88.8918 29.5032 89.5165 30.7928 90.1021C31.3398 90.3363 31.8479 90.5705 32.3949 90.8048C32.5122 90.8438 32.5903 90.9609 32.7075 91.039C32.5903 90.9999 32.5122 90.9999 32.434 90.9999Z" fill="white"/>
<path d="M34.3487 -2.34582e-05C34.7786 0.0390156 35.2084 0.0780546 35.5992 0.117094C36.4589 0.195172 37.2795 0.351328 38.1001 0.66364C38.4909 0.819796 38.8817 1.05403 39.2725 1.24923C39.4288 1.3273 39.546 1.48346 39.7023 1.63962C39.5851 1.71769 39.4678 1.75673 39.3897 1.79577C38.6082 2.03001 37.8266 2.30328 37.0451 2.53751C35.7946 2.88887 34.6613 3.51349 33.489 4.13811C32.2776 4.80178 31.1835 5.66064 30.0112 6.44142C29.7767 6.59757 29.5032 6.79277 29.2687 6.94893C28.9952 7.14412 28.6825 7.26124 28.3308 7.26124C27.7447 7.30028 27.1585 7.30028 26.5333 7.33932C26.4551 7.33932 26.4161 7.33932 26.2988 7.30028C26.4161 6.87085 26.5333 6.44142 26.6505 6.01199C27.0413 4.80178 27.4711 3.59157 28.1355 2.49848C28.9952 1.05403 30.2456 0.234211 31.9259 0.0780546C32.3167 0.0390156 32.7075 -2.34582e-05 33.0983 -0.0390625C33.5281 -2.34582e-05 33.9189 -2.34582e-05 34.3487 -2.34582e-05Z" fill="white"/>
<path d="M33.5672 27.6396C33.6844 27.7958 33.8407 27.952 33.9189 28.1081C34.3878 28.8889 34.8567 29.6697 35.2866 30.4505C37.0451 33.8859 38.6081 37.3994 39.8977 41.03C40.8356 43.6066 41.3826 46.2613 41.6952 48.994C41.8516 50.4775 41.9297 51.961 41.8516 53.4445C41.7734 55.3183 41.3826 57.1141 40.7574 58.8709C40.0149 60.9009 39.2725 62.8919 38.53 64.9219C37.8266 66.8739 37.2014 68.8258 36.7715 70.8559C36.4198 72.4955 36.1854 74.1351 36.2635 75.8138C36.3026 76.5165 36.3807 77.1802 36.5761 77.8829C37.1623 79.991 38.4128 81.5526 40.4448 82.4114C40.4839 82.4114 40.5229 82.4505 40.562 82.5285C40.4448 82.4895 40.3666 82.4895 40.2494 82.4505C38.9598 82.1381 37.8266 81.5135 36.6934 80.7718C35.7555 80.1472 34.8958 79.4054 34.2315 78.4685C33.0592 76.8679 32.2776 75.0721 31.8869 73.1201C31.5352 71.3634 31.4179 69.6066 31.5352 67.8108C31.6524 65.8979 32.0041 63.985 32.473 62.1111C33.0983 59.6517 33.7626 57.1922 34.3487 54.7327C34.8958 52.5075 35.3647 50.2433 35.6383 47.9399C35.9509 45.5195 36.0681 43.0991 35.9509 40.6787C35.8727 37.8679 35.5601 35.018 34.8567 32.2072C34.5832 31.1532 34.2315 30.0991 33.8798 29.0451C33.7626 28.6547 33.6453 28.2643 33.5281 27.8739C33.489 27.7958 33.489 27.7177 33.489 27.6396C33.5281 27.6787 33.5281 27.6396 33.5672 27.6396Z" fill="white"/>
<path d="M31.4574 40.1711C31.6918 41.4985 31.9654 42.7087 32.1999 43.9579C32.4734 45.5585 32.4343 47.1591 32.3562 48.7597C32.1608 52.8588 31.2229 56.8018 29.6989 60.5886C29.0737 62.1111 28.4484 63.6726 27.8623 65.1952C27.2761 66.7177 26.8854 68.2793 26.729 69.9189C26.4555 72.4564 26.69 74.9159 27.7841 77.2973C28.6829 79.2883 30.0897 80.9279 31.8091 82.2552C33.3331 83.4264 35.0134 84.3243 36.7328 85.1051C36.85 85.1441 36.9282 85.1832 37.0845 85.2612C37.0063 85.3003 36.9673 85.3003 36.9282 85.3003C33.4112 85.3003 30.1288 84.4024 27.1589 82.4114C24.5016 80.6156 22.8995 78.078 22.3133 74.9159C22.0007 73.3543 21.9616 71.7928 22.0789 70.1922C22.2352 67.6937 22.7432 65.2342 23.3684 62.8138C23.8764 60.7057 24.4235 58.5976 24.7752 56.4504C25.166 54.3423 25.4004 52.2342 25.4004 50.0871C25.4004 49.3453 25.3613 48.5645 25.166 47.8618C25.0487 47.4714 24.9315 47.1201 24.7752 46.7687C24.7361 46.6516 24.6579 46.4955 24.5798 46.3784C24.3844 45.9489 24.3844 45.9489 24.7361 45.6756C26.8463 43.9189 28.9955 42.1621 31.1057 40.4054C31.1838 40.4054 31.3011 40.3273 31.4574 40.1711Z" fill="white"/>
<path d="M31.1445 6.98784C31.379 6.90977 31.6135 6.79265 31.8088 6.71457C33.7627 6.01187 35.7947 5.5434 37.8267 5.23109C39.7806 4.91878 41.7345 4.76262 43.7274 4.8407C46.8536 4.95781 49.7062 5.85571 52.2462 7.72959C53.5358 8.66652 54.5909 9.83769 55.2943 11.2431C55.4506 11.5554 55.5678 11.9068 55.7241 12.2191L55.685 12.2581C55.6069 12.2191 55.4896 12.18 55.4115 12.141C54.3173 11.6335 53.2232 11.126 52.129 10.6185C50.4878 9.87673 48.8074 9.44731 47.0099 9.25211C45.9939 9.13499 44.9779 9.05691 43.9619 8.97884C42.3206 8.90076 40.7184 9.13499 39.1163 9.48634C38.1784 9.68154 37.2406 9.87673 36.3027 10.0719C35.9901 10.15 35.8729 10.0719 35.8338 9.75962C35.7166 8.78364 35.1304 8.19806 34.2707 7.8467C33.6064 7.57343 32.9421 7.45631 32.2778 7.30016C31.9261 7.22208 31.5353 7.144 31.1836 7.06592C31.1445 7.06592 31.1445 7.02688 31.1445 6.98784Z" fill="white"/>
<path d="M65.2198 27.5226C65.1025 27.4054 65.0244 27.2883 64.9072 27.1712C63.2659 25.3364 61.5465 24.6337 59.749 22.955C57.717 21.0811 55.0988 19.4024 52.5978 18.1532C50.5658 17.0991 47.596 15.8499 45.4076 15.1862C42.9848 14.4835 41.8516 13.7027 39.3507 12.8439C39.0771 12.7658 38.8427 12.6487 38.6473 12.4535C38.3737 12.1802 38.1393 11.9069 37.8267 11.5946C38.022 11.5946 38.1784 11.5556 38.3347 11.5556C40.4058 11.4775 42.4378 11.5165 44.4698 11.7508C47.9477 12.1412 51.3474 12.922 54.5517 14.3664C57.0136 15.4595 59.241 16.9039 61.1167 18.8559C63.4613 21.3153 64.829 24.1652 65.2198 27.5226Z" fill="white"/>
<path d="M25.8301 12.7266C26.1427 11.2041 26.6898 9.91583 27.9793 9.01794C28.0966 8.93986 28.2529 8.82274 28.4092 8.74466C29.816 8.04196 31.4963 8.35427 32.6295 9.52544C33.4111 10.3453 33.8409 11.3212 33.9581 12.4534C34.1535 14.8348 33.6846 17.1381 32.6295 19.2852C32.3951 19.7537 32.0824 20.2221 31.6917 20.5735C31.6135 20.6516 31.5744 20.6906 31.4963 20.7687C30.7929 21.3152 30.0895 21.3543 29.347 20.8858C29.2689 20.8468 29.1907 20.8077 29.1126 20.7296C28.9953 20.6125 28.7999 20.5735 28.839 20.3393C28.8781 20.066 28.9563 19.8708 29.1907 19.7146C29.347 19.5975 29.5424 19.5194 29.7378 19.4804C29.9723 19.4023 30.0504 19.2852 30.0895 19.0119C30.1676 17.9579 30.2458 16.8648 30.324 15.8107C30.4021 14.6786 30.4803 13.5465 30.2849 12.4143C30.2067 12.063 30.1286 11.7116 29.9723 11.3603C29.7769 10.9308 29.4252 10.6966 28.9563 10.6576C28.4483 10.6576 28.0575 10.8528 27.823 11.2822C27.6667 11.5945 27.5495 11.9068 27.3932 12.2191C27.315 12.4534 27.1587 12.6095 26.8852 12.6095C26.4944 12.6486 26.1818 12.6876 25.8301 12.7266Z" fill="white"/>
<path d="M27.901 0.468459C27.8229 0.585576 27.7447 0.663654 27.6666 0.780771C27.2758 1.32732 26.8459 1.87386 26.4161 2.42041C25.5173 3.55254 25.2438 4.87987 25.4001 6.28528C25.4782 6.9099 25.5564 7.49549 25.6346 8.12011C25.6736 8.5105 25.6346 8.86185 25.4392 9.17416C25.1656 9.60359 24.8139 10.033 24.5013 10.5015C24.1887 10.2673 23.9152 10.0721 23.6416 9.83783C22.5475 8.86185 21.805 7.69068 21.5705 6.24624C21.297 4.6066 21.6878 3.12311 22.6647 1.75675C23.2118 1.01501 23.9542 0.624615 24.853 0.507498C25.4001 0.390381 25.9862 0.390381 26.5724 0.390381C27.0023 0.390381 27.4321 0.390381 27.862 0.390381C27.862 0.42942 27.862 0.42942 27.901 0.468459Z" fill="white"/>
<path d="M15.1621 12.9999C14.3415 11.2822 13.0129 10.111 11.2153 9.4083C11.4889 9.36926 11.7624 9.36926 12.075 9.33022C12.4658 9.29119 12.8566 9.21311 13.2473 9.13503C13.8335 8.97887 14.1461 8.62752 14.1461 8.0029C14.1461 7.57347 14.107 7.105 14.107 6.67557C14.107 6.55845 14.107 6.44134 14.068 6.32422C14.4978 6.67557 17.3505 10.8527 17.7803 11.7506C17.3895 11.9849 15.5529 12.9218 15.1621 12.9999Z" fill="white"/>
<path d="M16.4126 5.97291C17.0769 5.97291 17.7021 5.97291 18.3274 5.77771C18.9526 5.58252 19.4215 5.23116 19.9686 4.7627C19.9686 4.95789 19.9295 5.07501 19.9295 5.19212C19.8514 6.01194 19.8123 6.83176 19.9686 7.65158C20.164 8.58852 20.5939 9.33026 21.4145 9.83777C21.6099 9.95489 21.7662 10.111 21.9616 10.2672C21.688 10.4624 21.4145 10.5014 21.1409 10.5405C20.2812 10.6576 19.4606 10.5014 18.7572 9.99393C17.7412 9.29122 17.0769 8.35429 16.6471 7.18312C16.5689 6.83176 16.4517 6.44137 16.4126 5.97291Z" fill="white"/>
<path d="M5.39264 32.5195C5.39264 32.5976 5.39264 32.6366 5.39264 32.6757C5.1191 33.7297 4.6111 34.6276 3.82955 35.3694C3.47786 35.7207 3.12616 35.7598 2.69631 35.6427C2.3837 35.5646 2.11016 35.4084 1.91477 35.2132C1.28953 34.5496 0.664298 33.8859 0.195371 33.1051C0.156294 33.027 0.117217 32.9099 0.0390625 32.7928C0.468912 32.7538 0.898761 32.6757 1.32861 32.7928C1.60215 32.8709 1.83661 32.988 1.99292 33.1832C2.11015 33.3393 2.22739 33.3784 2.42277 33.3394C2.57908 33.3003 2.77447 33.2613 2.93078 33.2222C3.63417 33.027 4.33756 32.8318 5.04095 32.6366C5.15818 32.5586 5.27541 32.5586 5.39264 32.5195Z" fill="white"/>
</g>
<defs>
<clipPath id="clip0_124_388">
<rect width="332" height="91" fill="white"/>
</clipPath>
</defs>
</svg>
