<svg width="197" height="54" viewBox="0 0 197 54" fill="none" xmlns="http://www.w3.org/2000/svg">
<g clip-path="url(#clip0_124_188)">
<path d="M56.9016 25.4595C56.9016 25.4595 56.9016 26.3629 56.9016 26.7799C56.9016 29.5367 56.9016 35.8147 56.9016 36.2085H54.2583C54.2351 35.861 54.1655 24.834 54.2119 19.7143C54.2119 18.1622 54.467 16.61 55.2553 15.2201C58.1769 9.93823 66.2925 10.0309 68.4489 16.7722C68.7272 17.6757 68.8663 18.6023 68.7968 19.529C68.704 20.9884 68.2866 22.3784 67.2432 23.5598C66.2693 24.6718 65.5041 25.1583 64.1361 25.6448C63.8115 25.7606 62.9999 25.8996 62.6753 26.0154C62.4434 26.0849 62.2347 26.1313 62.3738 26.5946C62.5362 27.1043 63.0695 27.6371 63.3709 28.0309C64.9245 30.139 68.9127 35.6293 69.3301 36.2085H65.9447C65.1795 35.2355 64.4143 34.2394 63.6492 33.2432C61.9101 30.9498 60.171 28.6332 58.432 26.3398C58.1537 25.9691 57.9219 25.4595 56.9016 25.4595ZM61.7942 23.583C62.7217 23.583 63.7187 23.2587 64.368 22.6564C65.8983 21.2201 66.5244 19.4595 65.8983 17.4209C65.2723 15.3591 63.7187 14.1776 61.7014 14.2239C59.1044 14.2934 57.0871 16.3552 57.1799 19.0656C57.2726 22.1236 59.4754 23.4672 61.7942 23.583Z" fill="white"/>
<path d="M118 32.5946C118.464 33.1506 118.905 33.6834 119.392 34.2394C118.766 34.9575 118 35.4209 117.166 35.7452C114.174 36.9267 111.346 36.6718 108.888 34.5174C107.288 33.1274 106.314 31.3436 106.244 29.1429C106.198 27.6603 106.268 26.2471 107.056 24.9267C108.517 22.4711 110.673 21.1274 113.548 20.9884C116.864 20.8263 119.299 22.3321 120.968 25.0888C121.757 26.3861 122.058 27.8919 121.896 29.5135C121.896 29.5135 115.403 29.5135 112.714 29.5135C111.786 29.5135 110.836 29.4904 109.908 29.5599C109.166 29.6294 108.888 30.1622 109.12 30.9035C109.212 31.1815 109.328 31.4826 109.514 31.6911C111.346 33.8919 113.595 34.8417 116.47 33.4518C116.957 33.2433 117.398 32.9421 118 32.5946ZM118.997 26.5483C118.882 25.668 118.279 24.9962 117.583 24.4402C116.285 23.3745 114.777 23.0965 113.177 23.3745C111.856 23.6062 110.789 24.3475 109.954 25.39C109.56 25.8765 109.096 26.6873 109.746 27.2201C109.954 27.3823 111.485 27.2433 111.786 27.2433C114.314 27.2664 115.473 27.2664 118 27.2433C118.766 27.2433 119.067 27.1738 118.997 26.5483Z" fill="white"/>
<path d="M86.3031 29.4672H74.2225C73.2718 29.4672 73.179 30.7877 73.6892 31.529C74.4775 32.6641 75.5442 33.4981 76.889 33.9382C78.4426 34.4247 79.8338 33.9614 81.1787 33.2432C81.5265 33.0579 81.8511 32.8263 82.2453 32.5946C82.7091 33.1506 83.1496 33.6834 83.6366 34.2394C83.3119 34.7722 82.7786 35.0039 82.3149 35.2819C79.231 37.112 75.3123 36.7413 72.7849 34.1931C70.6284 32.0154 70.0719 29.3745 70.7444 26.5019C71.4168 23.6062 74.292 21.2664 77.26 21.0116C80.7845 20.7104 83.4742 22.1004 85.2829 25.112C86.048 26.4093 86.4886 27.8456 86.3031 29.4672ZM83.3583 27.1506C83.1728 25.8996 82.6163 25.0656 81.7816 24.3938C80.7381 23.5367 79.5092 23.2124 78.1643 23.2819C76.3093 23.3745 74.9877 24.3012 73.921 25.7375C73.6196 26.1544 73.5037 26.6409 73.8283 27.2201C74.0602 27.2664 74.3384 27.3591 74.6399 27.3591C77.1905 27.3591 79.7643 27.3822 82.3149 27.3591C82.6395 27.3591 82.9409 27.2432 83.3583 27.1506Z" fill="white"/>
<path d="M136.481 11.2355H138.799L138.823 20.6178C138.915 21.6834 139.147 21.7297 139.657 21.5212C140.747 21.1043 141.86 20.8494 143.02 20.7568C144.272 20.6641 145.593 20.8726 146.66 21.5907C148.445 22.7954 149.489 24.4865 149.466 26.6873C149.442 29.5135 149.466 36.1622 149.466 36.1622H146.845C146.845 36.1622 146.799 30.3707 146.799 28.0309C146.799 27.0348 146.66 26.0618 146.219 25.1351C145.361 23.4209 143.808 22.7259 141.976 23.305C140.724 23.6989 139.704 24.417 139.078 25.5753C138.637 26.4093 138.823 27.3591 138.799 28.2857C138.799 30.4633 138.799 36.1622 138.799 36.1622H136.458L136.481 11.2355Z" fill="white"/>
<path d="M159.738 20.9884C164.074 20.7799 167.459 24.695 167.482 28.6564C167.506 32.9189 164.097 36.3938 159.854 36.4402C155.448 36.4865 151.924 32.6178 151.9 28.6796C151.9 24.5097 155.587 20.7568 159.738 20.9884ZM159.854 23.305C157.257 23.0734 154.381 25.2278 154.358 28.6101C154.358 31.6448 156.515 34.0309 159.738 34.0772C163.03 34.1236 165.071 31.3436 165.164 28.6332C165.303 25.7838 162.543 23.0502 159.854 23.305Z" fill="white"/>
<path d="M96.946 11.6294C96.946 12.417 96.946 13.1815 96.946 13.8996C96.2736 14.2935 95.6475 14.5946 95.0678 14.9884C93.5607 16.0077 92.8882 17.5367 92.6795 19.2741C92.5868 20.0155 92.9346 20.2471 93.6766 20.4324C94.0012 20.5251 96.2504 20.4324 96.2504 20.4324V22.6796C95.6243 22.7027 94.9055 22.7722 94.3027 22.7722C92.981 22.8185 92.61 23.3514 92.61 24.6718C92.61 28.1236 92.6564 36.1622 92.6564 36.1622H89.8971C89.8971 36.1622 89.9202 28.4016 89.9202 25.0425C89.9202 24.7877 89.9434 24.5097 89.9202 24.2548C89.8507 23.4904 89.4565 23.0502 88.6681 22.9344C88.2739 22.888 87.8102 22.7954 87.3696 22.7722V20.4324H89.7811C89.8739 19.8996 90.013 19.251 90.1057 18.6487C90.4304 16.1931 91.6361 14.3166 93.6998 12.9498C94.6505 12.3012 95.6243 11.5599 96.946 11.6294Z" fill="white"/>
<path d="M132.887 24.417L130.591 23.8147C129.664 22.1004 127.716 22.3784 127.159 23.6062C126.696 24.6023 126.974 25.3205 127.901 25.8996C128.713 26.4093 129.571 26.6641 130.475 26.9884C131.519 27.3591 132.423 27.7761 133.188 28.6332C133.721 29.2355 133.93 29.9305 133.953 30.7182C133.976 31.4132 133.976 32.1313 133.814 32.7799C133.35 34.6101 131.426 36.1159 129.501 36.2085C128.875 36.2317 128.226 36.278 127.623 36.139C125.351 35.6294 124.006 34.1699 123.473 31.946C123.403 31.5985 123.357 31.0425 123.287 30.6023L125.861 31.3668C125.907 31.529 125.652 33.1043 127.159 33.8224C128.458 34.3552 129.687 34.2857 130.823 33.3823C131.032 33.2201 131.217 33.0116 131.356 32.8031C132.006 31.7838 131.982 30.7877 131.032 30.0695C130.406 29.583 129.501 29.3282 128.783 29.0039C127.971 28.6332 127.229 28.4247 126.417 28.0309C125.93 27.7761 125.467 27.4054 125.096 27.0116C124.075 25.9691 124.215 23.7452 125.258 22.5174C126.997 20.4093 130.452 20.2008 132.261 22.8417C132.516 23.2124 132.632 23.7452 132.887 24.417Z" fill="white"/>
<path d="M181.047 32.5946C181.511 33.1506 181.951 33.6834 182.438 34.2394C181.812 34.9575 181.047 35.4209 180.212 35.7452C177.221 36.9267 174.392 36.6718 171.934 34.5174C170.334 33.1274 169.36 31.3436 169.291 29.1429C169.244 27.6603 169.314 26.2471 170.102 24.9267C171.563 22.4711 173.72 21.1274 176.595 20.9884C179.911 20.8263 182.345 22.3321 184.015 25.0888C184.803 26.3861 185.105 27.8919 184.942 29.5135C184.942 29.5135 178.45 29.5135 175.76 29.5135C174.833 29.5135 173.882 29.4904 172.954 29.5599C172.212 29.6294 171.934 30.1622 172.166 30.9035C172.259 31.1815 172.375 31.4826 172.56 31.6911C174.392 33.8919 176.641 34.8417 179.516 33.4518C180.027 33.2433 180.467 32.9421 181.047 32.5946ZM182.044 26.5483C181.928 25.668 181.325 24.9962 180.629 24.4402C179.331 23.3745 177.824 23.0965 176.224 23.3745C174.902 23.6062 173.836 24.3475 173.001 25.39C172.607 25.8765 172.143 26.6873 172.792 27.2201C173.001 27.3823 174.531 27.2433 174.833 27.2433C177.36 27.2664 178.519 27.2664 181.047 27.2433C181.835 27.2433 182.137 27.1738 182.044 26.5483Z" fill="white"/>
<path d="M195.933 24.417L193.638 23.8147C192.71 22.1004 190.762 22.3784 190.206 23.6062C189.742 24.6023 190.02 25.3205 190.948 25.8996C191.759 26.4093 192.617 26.6641 193.522 26.9884C194.565 27.3591 195.469 27.7761 196.235 28.6332C196.768 29.2355 196.977 29.9305 197 30.7182C197.023 31.4132 197.023 32.1313 196.861 32.7799C196.397 34.6101 194.472 36.1159 192.548 36.2085C191.922 36.2317 191.272 36.278 190.67 36.139C188.397 35.6294 187.052 34.1699 186.519 31.946C186.449 31.5985 186.403 31.0425 186.333 30.6023L188.907 31.3668C188.954 31.529 188.699 33.1043 190.206 33.8224C191.504 34.3552 192.733 34.2857 193.869 33.3823C194.078 33.2201 194.264 33.0116 194.403 32.8031C195.052 31.7838 195.029 30.7877 194.078 30.0695C193.452 29.583 192.548 29.3282 191.829 29.0039C191.017 28.6332 190.275 28.4247 189.464 28.0309C188.977 27.7761 188.513 27.4054 188.142 27.0116C187.122 25.9691 187.261 23.7452 188.304 22.5174C190.043 20.4093 193.498 20.2008 195.307 22.8417C195.562 23.2124 195.678 23.7452 195.933 24.417Z" fill="white"/>
<path d="M100.424 36.1622C99.5665 36.1622 98.8245 36.1622 98.0825 36.1622C98.0825 36.1622 98.0593 30.1853 98.1056 27.7066C98.1288 26.8958 98.2216 26.0618 98.4071 25.251C98.894 23.305 100.239 22.0772 102.001 21.2432C102.929 20.8031 104.088 20.7336 105.155 20.6409V23.027C104.784 23.0734 104.482 23.0734 104.204 23.1197C102.975 23.2819 102.024 23.8147 101.398 24.9266C100.772 26.0618 100.424 27.2432 100.424 28.5174C100.424 30.6718 100.424 36.1622 100.424 36.1622Z" fill="white"/>
<path d="M43.1516 26.8957C42.7574 27.4285 42.2009 27.637 41.5749 27.7297C40.7401 27.8455 39.9518 27.6834 39.2098 27.3359C38.8851 27.1969 38.5373 27.0347 38.2127 26.8726C38.12 26.8262 38.0272 26.8031 37.9113 26.7567C37.8881 26.8957 37.8649 27.0115 37.8417 27.1274C37.7026 27.8687 37.4707 28.5637 37.1461 29.2123C36.4505 30.6718 35.5462 31.9922 34.3868 33.1042C34.0158 33.4517 33.6216 33.776 33.181 34.054C33.0883 34.1004 32.9955 34.1467 32.8564 34.2162C32.8796 34.0309 32.9028 33.8919 32.926 33.7529C33.0187 33.1969 33.1115 32.6409 33.2042 32.0849C33.3665 31.0888 33.3897 30.0695 33.3202 29.0733C33.2506 28.054 33.0883 27.0579 32.7869 26.0849C32.3231 24.5328 31.6043 23.1197 30.5609 21.8687C30.1203 21.3359 29.6102 20.8726 29.0537 20.4324C28.9609 20.3629 28.8682 20.3166 28.7754 20.2471C28.7523 20.2239 28.7291 20.2239 28.6827 20.2007C28.7059 20.2471 28.7059 20.2934 28.7059 20.3166C29.4247 21.9382 29.9348 23.6293 30.3058 25.3668C30.5145 26.3397 30.6768 27.3359 30.7696 28.332C30.8623 29.2587 30.8855 30.1853 30.8159 31.1119C30.7232 32.5019 30.4681 33.8455 29.8884 35.1428C29.1928 36.7181 28.1726 38.0154 26.8277 39.081C26.5958 39.2664 26.3408 39.3822 26.1089 39.5212C26.0393 39.5675 25.9698 39.5675 25.9002 39.5907C25.9002 39.3359 25.9234 39.1042 25.9234 38.8957C26.0161 37.1583 26.0857 35.4208 26.0393 33.6834C26.0161 32.5019 25.9698 31.3204 25.9002 30.139C25.8306 28.9112 25.6915 27.7065 25.5292 26.5019C25.3205 25.0424 25.0423 23.583 24.6481 22.1467C24.2539 20.7567 23.7438 19.4363 23.0945 18.1621C22.8395 17.6525 22.4917 17.1892 22.1207 16.749C21.8888 16.471 21.6569 16.1698 21.4482 15.8455C21.541 15.8224 21.5874 15.8687 21.6569 15.8919C22.0047 16.1003 22.3757 16.2857 22.7235 16.5173C23.5351 17.0733 24.2771 17.6988 24.9263 18.3938C25.3205 18.8108 25.6451 19.2973 25.877 19.8301C25.9234 19.9227 25.9466 19.9922 25.993 20.0849C25.993 20.0849 26.0161 20.1081 26.0393 20.1081C26.0393 20.0154 26.0625 19.9227 26.0625 19.8532C26.0857 19.1583 25.9698 18.5096 25.7147 17.861C25.135 16.332 24.2307 15.0347 23.0018 13.9691C22.5148 13.5521 22.0047 13.1583 21.4946 12.7644C21.4482 12.7413 21.425 12.7181 21.4019 12.6718C21.6105 12.4633 21.8424 12.3011 22.0279 12.0695C22.1902 11.861 22.3062 11.583 22.4685 11.3281C22.6076 11.3513 22.7699 11.3745 22.9322 11.3976C23.4192 11.4903 23.8829 11.6756 24.3467 11.8841C24.6481 12.0231 24.9495 12.139 25.2741 12.278C25.3437 12.3011 25.3901 12.3243 25.506 12.3475C25.4596 12.2548 25.4365 12.1853 25.3901 12.1158C25.1118 11.6525 24.7408 11.2818 24.3235 10.9807C23.651 10.471 22.8858 10.1467 22.0279 10.0772C22.0047 10.0772 22.0047 10.0772 21.9584 10.054C21.9352 9.40537 21.912 8.73355 21.8888 8.03857C22.0743 8.06174 22.2366 8.06174 22.3757 8.08491C24.764 8.45556 27.0364 9.24321 29.1696 10.3552C29.8652 10.7258 30.5145 11.1892 31.1406 11.6756C32.3231 12.5559 33.4129 13.5521 34.3404 14.6872C35.3838 15.9382 36.1954 17.3513 36.8215 18.8571C37.2157 19.7837 37.5866 20.7336 37.9808 21.6602C38.3518 22.5405 38.7924 23.3745 39.3953 24.1158C40.1604 25.0656 41.0879 25.7837 42.1546 26.3397C42.4328 26.4787 42.7111 26.6177 42.9893 26.7336C43.0357 26.7567 43.0821 26.7567 43.1284 26.7799C43.1516 26.8494 43.1516 26.8725 43.1516 26.8957Z" fill="white"/>
<path d="M0 18.9266C0.0231874 18.8571 0.0695622 18.7645 0.0927495 18.695C0.162312 18.3938 0.301436 18.139 0.463748 17.8841C0.765184 17.3977 1.13618 16.9343 1.53037 16.5173C2.59699 15.3822 3.77954 14.3861 5.07804 13.5058C5.12441 13.4826 5.1476 13.4594 5.19397 13.4363C5.19397 13.4363 5.21716 13.4363 5.26354 13.4131C5.3331 13.5058 5.42585 13.6216 5.5186 13.7143C5.77366 14.0386 6.02872 14.3629 6.30697 14.6872C6.65478 15.0811 7.04896 15.4517 7.5359 15.7065C7.60546 15.7297 7.65184 15.7529 7.74459 15.7992C7.74459 15.7297 7.74459 15.6834 7.7214 15.6602C7.69821 15.5675 7.67502 15.498 7.67502 15.4054C7.62865 14.9884 7.76777 14.6409 8.11558 14.3861C8.30108 14.2702 8.48658 14.1544 8.69527 14.0617C8.85758 13.9691 9.04308 13.8996 9.20539 13.8069C9.27495 13.7606 9.34451 13.7143 9.41408 13.6679C9.01989 13.4131 8.67208 13.4363 8.34746 13.6911C8.23152 13.7838 8.13877 13.8764 8.02283 13.9459C7.79096 14.1081 7.5359 14.2239 7.25765 14.2702C6.93303 14.3166 6.65478 14.2239 6.44609 13.9691C6.33016 13.8069 6.21422 13.6448 6.12147 13.4826C6.02872 13.3204 5.95916 13.1351 5.86641 12.9498C5.93597 12.9034 6.00553 12.8571 6.07509 12.8108C6.58522 12.5096 7.09534 12.1853 7.5359 11.8146C7.79096 11.583 8.02283 11.3513 8.20833 11.0502C8.32427 10.8417 8.37065 10.7258 8.39383 10.5637C7.97646 11.166 7.48952 11.583 6.67797 11.4208C6.72434 11.3282 6.74753 11.2587 6.77072 11.1892C6.9794 10.8417 7.21128 10.471 7.44315 10.1235C8.11558 8.96522 9.13583 8.20075 10.3184 7.59843C10.9213 7.29727 11.5705 7.04244 12.2429 6.94978C12.5907 6.90345 12.9617 6.85712 13.3327 6.92661C13.3791 7.06561 13.4023 7.20461 13.4487 7.3436C13.4719 7.4826 13.5414 7.59843 13.6574 7.66793C13.7269 7.71426 13.7965 7.78376 13.8661 7.83009C13.982 7.94592 14.0052 7.99225 13.8892 8.13125C13.7965 8.24708 13.7037 8.36291 13.5878 8.47874C13.3791 8.68723 13.1472 8.89573 12.9386 9.12739C12.7994 9.28955 12.6371 9.47488 12.5444 9.68337C12.3125 10.1467 12.3357 10.5868 12.6139 11.027C12.7067 11.1892 12.8458 11.305 12.9617 11.4672C13.1009 11.6525 13.2632 11.8146 13.4023 12C13.5182 12.1621 13.5646 12.3475 13.611 12.5328C13.6342 12.6486 13.611 12.7181 13.5414 12.7876C13.3559 12.9961 13.1009 13.1351 12.8226 13.2046C12.4748 13.2973 12.127 13.3668 11.8024 13.4363C11.5473 13.5058 11.3154 13.5753 11.0836 13.6448C11.014 13.6679 10.9444 13.7143 10.8285 13.7606C11.1763 13.9459 11.5241 14.0386 11.8719 14.0849C12.6835 14.2007 13.4487 14.0154 14.1907 13.6911C14.7472 13.4594 15.2341 13.1351 15.7442 12.8108C15.8602 12.7413 15.9993 12.6486 16.1384 12.556C16.1848 12.6255 16.2312 12.6718 16.2544 12.7413C16.3471 12.9034 16.4167 13.0888 16.5094 13.2278C16.6254 13.4131 16.7413 13.5984 16.8804 13.7606C17.0427 13.9459 17.2514 14.0849 17.4833 14.1544C17.6456 14.2007 17.8079 14.2702 17.9702 14.3397C18.0166 14.8494 18.0862 15.3359 18.1325 15.8455C18.2021 16.5405 18.2948 17.2123 18.3644 17.9073C18.434 18.5328 18.5035 19.1814 18.5731 19.8069C18.5963 20.0849 18.6195 20.3629 18.6658 20.6409C18.689 20.7567 18.6427 20.8031 18.5499 20.8262C18.1093 21.0116 17.7383 20.9189 17.4601 20.5251C17.2282 20.2239 17.1123 19.8764 17.0195 19.5058C16.9268 19.0888 16.8572 18.6718 16.7645 18.2548C16.7181 18.0231 16.6485 17.7915 16.5558 17.5598C16.208 16.749 15.5819 16.3552 14.724 16.3089C13.9356 16.2625 13.2168 16.4942 12.5676 16.9112C12.1966 17.1428 11.8488 17.4208 11.5009 17.6756C11.2459 17.8378 10.9908 18.0231 10.7126 18.1621C10.2024 18.4401 9.66914 18.4401 9.13583 18.2085C8.78802 18.0695 8.50977 17.8378 8.20833 17.6062C8.16196 17.5598 8.11558 17.5367 8.02283 17.4672C8.04602 17.5598 8.06921 17.6061 8.0924 17.6525C8.50977 18.3475 9.11264 18.7645 9.9242 18.9266C10.4807 19.0193 10.9908 18.9266 11.5009 18.695C11.7096 18.6023 11.9183 18.4865 12.127 18.3938C12.9849 17.9768 13.7965 18.1158 14.5153 18.7181C15.2341 19.3204 15.5819 20.1081 15.6283 21.0347C15.6747 21.8919 15.4196 22.6795 15.0022 23.4208C14.3994 24.4633 13.5646 25.2741 12.5212 25.8533C12.4284 25.8996 12.3357 25.9459 12.2198 25.9923L12.1966 25.9691C12.2429 25.8533 12.2893 25.7374 12.3357 25.5984C12.4748 25.2509 12.6139 24.9266 12.7299 24.5791C12.8458 24.278 12.8922 23.9536 12.8226 23.6061C12.7531 23.1197 12.498 22.749 12.0574 22.4942C11.5705 22.2394 11.0604 22.1699 10.5271 22.1467C10.2488 22.1235 9.94739 22.1467 9.64595 22.1467C9.90101 21.6139 10.3648 21.359 10.8749 21.1737C10.643 21.1737 10.4343 21.1969 10.2256 21.2664C9.32133 21.5675 8.57933 22.0772 8.16196 22.9575C7.83734 23.6293 7.88371 24.3011 8.30108 24.9498C8.39383 25.0888 8.4634 25.2046 8.55614 25.3436C8.85758 25.8533 8.74164 26.3629 8.30108 26.7336C7.81415 27.1274 6.95621 27.1737 6.4229 26.7567C6.19103 26.5714 6.00553 26.3397 5.82003 26.1081C5.75047 25.9923 5.65772 25.8996 5.54178 25.8069C5.54178 25.8996 5.5186 25.9923 5.5186 26.0849C5.47222 26.3166 5.44903 26.5714 5.40266 26.8031C5.37947 26.8957 5.3331 27.0116 5.28672 27.1042C5.19397 27.2664 5.03166 27.3127 4.86935 27.22C4.73023 27.1506 4.61429 27.0347 4.49835 26.9421C4.35923 26.8031 4.24329 26.6641 4.10417 26.5019C3.98823 26.6177 3.89548 26.7567 3.87229 26.9189C3.84911 27.0579 3.84911 27.2201 3.82592 27.4054C3.73317 27.359 3.66361 27.3359 3.59404 27.2895C3.40855 27.1506 3.19986 26.9884 3.03755 26.8262C2.50424 26.2702 2.15643 25.5984 2.0173 24.8571C1.97093 24.6023 1.92455 24.3475 1.99411 24.0695C2.04049 24.0695 2.08686 24.0463 2.15643 24.0463C2.9448 24.0695 3.73317 24.0695 4.52154 24.0926C4.68385 24.0926 4.86935 24.1158 5.03166 24.139C5.28672 24.1621 5.49541 24.278 5.65772 24.4633C5.79685 24.6023 5.93597 24.7645 6.07509 24.9266C6.19103 25.0424 6.30697 25.1814 6.44609 25.2741C6.53884 25.3436 6.65478 25.3899 6.7939 25.3899C6.93303 25.1583 6.90984 24.9266 6.7939 24.695C6.70115 24.4865 6.56203 24.3243 6.37653 24.1853C5.77366 23.6988 5.10122 23.3745 4.33604 23.2123C3.89548 23.1197 3.47811 23.0733 3.03755 23.0038C2.9448 22.9807 2.85205 22.9575 2.73611 22.9343C2.34193 22.8417 2.08686 22.5868 1.99411 22.193C1.92455 21.9382 1.90137 21.6834 1.90137 21.3822C2.62017 21.1737 3.24623 20.8494 3.57086 20.1312C3.77954 19.6448 3.82592 19.1351 3.75636 18.556C3.68679 18.6255 3.61723 18.6718 3.59404 18.7181C3.26942 19.0656 2.85205 19.2278 2.3883 19.2741C1.62312 19.3668 0.881121 19.2509 0.162312 19.0193C0.139124 19.0193 0.0927495 18.9961 0.0695622 18.9961C0 18.9961 0 18.9498 0 18.9266Z" fill="white"/>
<path d="M19.2455 54C19.06 53.9536 18.8745 53.9305 18.7122 53.8841C17.1354 53.583 15.6978 53.0038 14.3297 52.193C13.1936 51.5212 12.1733 50.6872 11.3154 49.6911C10.3183 48.5559 9.66908 47.2123 9.20533 45.776C8.85752 44.6872 8.69521 43.5752 8.67202 42.4169C8.64884 41.2123 8.76477 40.0308 8.97346 38.8494C9.13577 37.9459 9.32127 37.0424 9.48358 36.139C9.48358 36.0926 9.50677 36.0231 9.50677 35.9305C9.32127 36.0463 9.20533 36.1621 9.0894 36.2779C8.64884 36.7644 8.27784 37.3204 7.95321 37.8996C7.37353 38.942 6.97934 40.054 6.79384 41.2355C6.65472 42.0926 6.65472 42.9498 6.74747 43.8069C6.93297 45.359 7.48947 46.7722 8.23146 48.139C8.81115 49.2278 9.50677 50.2471 10.3415 51.1737C10.7589 51.637 11.1994 52.0772 11.64 52.5405C11.7328 52.6332 11.8023 52.749 11.8487 52.9112C11.7328 52.8648 11.6168 52.8417 11.5473 52.7953C11.1299 52.5868 10.7357 52.3783 10.3415 52.1467C9.11258 51.4054 7.9764 50.5251 6.97934 49.4826C5.68085 48.0926 4.70698 46.5173 4.17367 44.664C3.84905 43.5289 3.7563 42.3706 3.77949 41.1891C3.80267 40.0077 4.05773 38.8494 4.45192 37.7374C4.59104 37.3204 4.70698 36.9034 4.82292 36.4864C4.82292 36.4401 4.8461 36.4169 4.8461 36.3474C4.70698 36.3243 4.56786 36.3011 4.42873 36.2779C3.87224 36.1853 3.33893 36.0231 2.85199 35.7451C2.36506 35.4671 1.97087 35.0733 1.78537 34.5405C1.739 34.4247 1.71581 34.2857 1.66943 34.1235C1.83175 34.1467 1.97087 34.1467 2.10999 34.1698C2.89837 34.2625 3.66355 34.3552 4.45192 34.3088C5.9591 34.2393 7.37353 33.8918 8.67202 33.081C9.06621 32.8262 9.41402 32.5482 9.71546 32.2007C9.73864 32.1776 9.76183 32.1544 9.78502 32.1312C9.78502 32.1312 9.78502 32.1081 9.8082 32.0849C9.64589 32.0617 9.46039 32.0154 9.29808 31.9922C8.81115 31.8996 8.37059 31.7374 7.95321 31.4594C7.72134 31.2973 7.51265 31.1119 7.37353 30.8571C7.35034 30.8339 7.35034 30.7876 7.32716 30.7413C7.58222 30.7644 7.83728 30.7876 8.06915 30.7876C9.78502 30.8803 11.1067 30.1853 12.1269 28.8417C12.4284 28.4478 12.6834 28.0308 12.9153 27.5907C12.9385 27.5444 12.9617 27.498 13.0081 27.4285C13.1704 27.7065 13.2631 27.9845 13.3559 28.2625C13.5182 28.8648 13.5877 29.4671 13.6341 30.0926C13.7037 31.1583 13.6805 32.2007 13.6341 33.2664C13.5414 34.8648 13.3095 36.4401 12.8689 37.9922C12.6139 38.9189 12.3588 39.8687 12.1038 40.7953C11.8487 41.8378 11.6632 42.9034 11.6632 43.9691C11.64 47.5135 13.0544 50.2934 16.0224 52.2857C16.718 52.749 17.5064 53.1196 18.2716 53.4671C18.5962 53.6061 18.8977 53.7451 19.2223 53.8841C19.2918 53.9073 19.3382 53.9768 19.4078 54.0231C19.3382 54 19.2918 54 19.2455 54Z" fill="white"/>
<path d="M20.3816 -2.73362e-05C20.6366 0.0231387 20.8917 0.0463047 21.1236 0.0694707C21.6337 0.115803 22.1206 0.208467 22.6076 0.393795C22.8394 0.486459 23.0713 0.625455 23.3032 0.741285C23.3959 0.787617 23.4655 0.880281 23.5583 0.972946C23.4887 1.01928 23.4191 1.04244 23.3728 1.06561C22.909 1.20461 22.4453 1.36677 21.9815 1.50576C21.2395 1.71426 20.5671 2.08491 19.8715 2.45557C19.1526 2.84939 18.5034 3.35905 17.8078 3.82237C17.6687 3.91503 17.5063 4.03086 17.3672 4.12352C17.2049 4.23935 17.0194 4.30885 16.8107 4.30885C16.4629 4.33202 16.1151 4.33202 15.7441 4.35519C15.6977 4.35519 15.6745 4.35519 15.605 4.33202C15.6745 4.07719 15.7441 3.82237 15.8137 3.56754C16.0455 2.84939 16.3006 2.13125 16.6948 1.4826C17.2049 0.625455 17.9469 0.138969 18.944 0.0463047C19.1758 0.0231387 19.4077 -2.73362e-05 19.6396 -0.0231934C19.8946 -2.73362e-05 20.1265 -2.73362e-05 20.3816 -2.73362e-05Z" fill="white"/>
<path d="M19.9179 16.4015C19.9874 16.4942 20.0802 16.5868 20.1266 16.6795C20.4048 17.1428 20.683 17.6062 20.9381 18.0695C21.9815 20.1081 22.909 22.193 23.6742 24.3475C24.2307 25.8764 24.5553 27.4517 24.7408 29.0733C24.8336 29.9536 24.88 30.834 24.8336 31.7143C24.7872 32.8262 24.5553 33.8919 24.1843 34.9343C23.7438 36.139 23.3032 37.3204 22.8627 38.5251C22.4453 39.6834 22.0743 40.8417 21.8192 42.0463C21.6105 43.0193 21.4714 43.9923 21.5178 44.9884C21.541 45.4054 21.5874 45.7992 21.7033 46.2162C22.0511 47.4672 22.7931 48.3938 23.9988 48.9035C24.022 48.9035 24.0452 48.9266 24.0684 48.9729C23.9988 48.9498 23.9525 48.9498 23.8829 48.9266C23.1177 48.7413 22.4453 48.3706 21.7729 47.9305C21.2164 47.5598 20.7062 47.1197 20.3121 46.5637C19.6164 45.6139 19.1527 44.5482 18.9208 43.3899C18.7121 42.3475 18.6426 41.305 18.7121 40.2394C18.7817 39.1042 18.9904 37.9691 19.2686 36.8571C19.6396 35.3977 20.0338 33.9382 20.3816 32.4787C20.7062 31.1583 20.9845 29.8146 21.1468 28.4479C21.3323 27.0116 21.4019 25.5753 21.3323 24.139C21.2859 22.471 21.1004 20.7799 20.683 19.1119C20.5207 18.4865 20.3121 17.861 20.1034 17.2355C20.0338 17.0038 19.9642 16.7722 19.8947 16.5405C19.8715 16.4942 19.8715 16.4479 19.8715 16.4015C19.8947 16.4247 19.8947 16.4015 19.9179 16.4015Z" fill="white"/>
<path d="M18.666 23.8378C18.8051 24.6254 18.9674 25.3436 19.1065 26.0849C19.2689 27.0347 19.2457 27.9845 19.1993 28.9343C19.0834 31.3668 18.5269 33.7065 17.6226 35.9536C17.2516 36.8571 16.8806 37.7837 16.5327 38.6872C16.1849 39.5907 15.9531 40.5173 15.8603 41.4903C15.698 42.9961 15.8371 44.4556 16.4864 45.8687C17.0197 47.0502 17.8544 48.0231 18.8747 48.8108C19.779 49.5058 20.776 50.0386 21.7963 50.5019C21.8658 50.5251 21.9122 50.5482 22.005 50.5946C21.9586 50.6177 21.9354 50.6177 21.9122 50.6177C19.8254 50.6177 17.8776 50.0849 16.1154 48.9034C14.5386 47.8378 13.5879 46.332 13.2401 44.4556C13.0546 43.5289 13.0314 42.6023 13.101 41.6525C13.1938 40.1698 13.4952 38.7104 13.8662 37.2741C14.1676 36.0231 14.4923 34.7722 14.7009 33.498C14.9328 32.2471 15.0719 30.9961 15.0719 29.722C15.0719 29.2818 15.0488 28.8185 14.9328 28.4015C14.8633 28.1698 14.7937 27.9614 14.7009 27.7529C14.6778 27.6834 14.6314 27.5907 14.585 27.5212C14.4691 27.2664 14.4691 27.2664 14.6778 27.1042C15.9299 26.0617 17.2052 25.0193 18.4573 23.9768C18.5037 23.9768 18.5732 23.9305 18.666 23.8378Z" fill="white"/>
<path d="M18.4805 4.14672C18.6196 4.10038 18.7587 4.03089 18.8747 3.98456C20.034 3.56757 21.2398 3.28957 22.4455 3.10425C23.6049 2.91892 24.7643 2.82625 25.9468 2.87259C27.8018 2.94208 29.4945 3.4749 31.0017 4.58687C31.7668 5.14286 32.3929 5.83784 32.8103 6.67181C32.903 6.85714 32.9726 7.06564 33.0653 7.25096L33.0421 7.27413C32.9958 7.25096 32.9262 7.2278 32.8798 7.20463C32.2306 6.90347 31.5813 6.60232 30.9321 6.30116C29.9582 5.861 28.9612 5.60618 27.8945 5.49035C27.2917 5.42085 26.6888 5.37452 26.0859 5.32818C25.1121 5.28185 24.1614 5.42085 23.2107 5.62934C22.6542 5.74517 22.0977 5.861 21.5412 5.97683C21.3557 6.02316 21.2861 5.97683 21.263 5.7915C21.1934 5.21235 20.8456 4.86486 20.3355 4.65637C19.9413 4.49421 19.5471 4.42471 19.1529 4.33205C18.9442 4.28571 18.7123 4.23938 18.5037 4.19305C18.4805 4.19305 18.4805 4.16988 18.4805 4.14672Z" fill="white"/>
<path d="M38.6997 16.332C38.6301 16.2625 38.5837 16.193 38.5142 16.1235C37.5403 15.0347 36.5201 14.6178 35.4534 13.6216C34.2477 12.5096 32.6941 11.5135 31.2101 10.7722C30.0044 10.1467 28.2422 9.4054 26.9437 9.01157C25.506 8.59459 24.8336 8.13127 23.3496 7.62161C23.1873 7.57528 23.0482 7.50578 22.9322 7.38995C22.7699 7.22779 22.6308 7.06563 22.4453 6.8803C22.5612 6.8803 22.654 6.85713 22.7467 6.85713C23.9757 6.8108 25.1814 6.83397 26.3872 6.97296C28.4508 7.20462 30.4681 7.66795 32.3695 8.52509C33.8303 9.17374 35.152 10.0309 36.265 11.1892C37.6562 12.6486 38.4678 14.3398 38.6997 16.332Z" fill="white"/>
<path d="M15.3267 7.55208C15.5122 6.64861 15.8368 5.88413 16.602 5.35131C16.6715 5.30498 16.7643 5.23548 16.857 5.18915C17.6918 4.77216 18.6888 4.95749 19.3613 5.65247C19.825 6.13895 20.0801 6.7181 20.1496 7.38992C20.2656 8.80305 19.9873 10.1698 19.3613 11.444C19.2221 11.722 19.0366 12 18.8048 12.2085C18.7584 12.2548 18.7352 12.278 18.6888 12.3243C18.2715 12.6486 17.8541 12.6718 17.4135 12.3938C17.3671 12.3706 17.3208 12.3474 17.2744 12.3011C17.2048 12.2316 17.0889 12.2085 17.1121 12.0695C17.1353 11.9073 17.1817 11.7915 17.3208 11.6988C17.4135 11.6293 17.5295 11.583 17.6454 11.5598C17.7845 11.5135 17.8309 11.444 17.8541 11.2818C17.9005 10.6563 17.9468 10.0077 17.9932 9.3822C18.0396 8.71038 18.086 8.03857 17.97 7.36675C17.9236 7.15826 17.8773 6.94976 17.7845 6.74127C17.6686 6.48644 17.4599 6.34745 17.1817 6.32428C16.8802 6.32428 16.6483 6.44011 16.5092 6.69494C16.4165 6.88027 16.3469 7.06559 16.2542 7.25092C16.2078 7.38992 16.115 7.48258 15.9527 7.48258C15.7208 7.50575 15.5353 7.52891 15.3267 7.55208Z" fill="white"/>
<path d="M16.5559 0.27796C16.5095 0.347459 16.4632 0.393791 16.4168 0.463289C16.1849 0.787613 15.9299 1.11194 15.6748 1.43626C15.1415 2.10808 14.9792 2.89572 15.0719 3.7297C15.1183 4.10035 15.1647 4.44784 15.211 4.8185C15.2342 5.05016 15.211 5.25866 15.0951 5.44398C14.9328 5.69881 14.7241 5.95364 14.5386 6.23163C14.3531 6.09263 14.1908 5.9768 14.0285 5.83781C13.3792 5.25866 12.9387 4.56367 12.7996 3.70653C12.6372 2.73356 12.8691 1.85325 13.4488 1.04244C13.7734 0.602285 14.214 0.370625 14.7473 0.301126C15.0719 0.231628 15.4197 0.231628 15.7675 0.231628C16.0226 0.231628 16.2777 0.231628 16.5327 0.231628C16.5327 0.254794 16.5327 0.254794 16.5559 0.27796Z" fill="white"/>
<path d="M8.99671 7.71426C8.50978 6.69495 7.7214 5.99997 6.65479 5.58298C6.8171 5.55982 6.97941 5.55982 7.16491 5.53665C7.39678 5.51349 7.62866 5.46715 7.86053 5.42082C8.20834 5.32816 8.39384 5.11966 8.39384 4.74901C8.39384 4.49418 8.37065 4.21619 8.37065 3.96136C8.37065 3.89186 8.37065 3.82237 8.34746 3.75287C8.60253 3.96136 10.2952 6.44013 10.5503 6.97295C10.3184 7.11194 9.22858 7.66793 8.99671 7.71426Z" fill="white"/>
<path d="M9.73877 3.54438C10.133 3.54438 10.504 3.54438 10.875 3.42855C11.2459 3.31272 11.5242 3.10423 11.8488 2.82623C11.8488 2.94206 11.8256 3.01156 11.8256 3.08106C11.7793 3.56755 11.7561 4.05403 11.8488 4.54052C11.9648 5.0965 12.2198 5.53666 12.7068 5.83782C12.8227 5.90731 12.9154 5.99998 13.0314 6.09264C12.8691 6.20847 12.7068 6.23164 12.5444 6.2548C12.0343 6.3243 11.5474 6.23164 11.13 5.93048C10.5271 5.51349 10.133 4.95751 9.87789 4.26253C9.83152 4.05403 9.76196 3.82237 9.73877 3.54438Z" fill="white"/>
<path d="M3.19962 19.2973C3.19962 19.3436 3.19962 19.3668 3.19962 19.3899C3.03731 20.0154 2.73587 20.5482 2.27213 20.9884C2.06344 21.1969 1.85475 21.2201 1.59969 21.1506C1.41419 21.1042 1.25188 21.0116 1.13594 20.8957C0.764946 20.5019 0.393947 20.1081 0.115699 19.6448C0.0925114 19.5984 0.069324 19.5289 0.0229492 19.4594C0.27801 19.4363 0.533072 19.3899 0.788133 19.4594C0.950445 19.5058 1.08957 19.5753 1.18232 19.6911C1.25188 19.7838 1.32144 19.8069 1.43738 19.7838C1.53013 19.7606 1.64607 19.7374 1.73882 19.7143C2.15619 19.5984 2.57356 19.4826 2.99093 19.3668C3.0605 19.3204 3.13006 19.3204 3.19962 19.2973Z" fill="white"/>
</g>
<defs>
<clipPath id="clip0_124_188">
<rect width="197" height="54" fill="white"/>
</clipPath>
</defs>
</svg>
