<svg width="109" height="109" viewBox="0 0 109 109" fill="none" xmlns="http://www.w3.org/2000/svg">
<path d="M80.2024 44.8863C78.066 56.9635 75.9514 68.9099 73.8368 80.9217C73.4444 80.9217 73.1174 80.9217 72.7904 80.9217C65.4656 80.9217 58.1408 80.9217 50.816 80.8999C50.0312 80.8999 49.6824 81.0306 49.5298 81.9244C48.8104 86.5024 44.1016 89.7725 39.8288 88.7479C36.7768 88.0285 34.902 85.1726 35.447 82.077C35.5124 81.7283 35.556 81.3795 35.6432 80.9217C32.0244 80.9217 28.4492 80.9217 24.7432 80.9217C24.8958 79.9407 25.0266 79.0686 25.1792 78.2184C27.0758 67.4274 28.9942 56.6365 30.8908 45.8455C31.0216 45.1043 31.2832 44.8427 32.068 44.8427C47.764 44.8645 63.4818 44.8645 79.1778 44.8645C79.5048 44.8863 79.7882 44.8863 80.2024 44.8863ZM78.8944 45.9545C78.393 45.9545 78.0878 45.9545 77.7608 45.9545C62.8714 45.9545 48.0038 45.9545 33.1144 45.9327C32.2642 45.9327 31.959 46.1725 31.8282 47.0009C30.1932 56.4403 28.5146 65.8579 26.836 75.2973C26.5744 76.7579 26.3346 78.2402 26.073 79.7881C26.4654 79.8099 26.7488 79.8317 27.0322 79.8317C29.7572 79.8317 32.504 79.8098 35.229 79.8534C35.8612 79.8534 36.2318 79.6791 36.5588 79.1123C37.7578 77.1067 39.48 75.7551 41.7472 75.1447C45.2352 74.2073 48.5052 75.8204 49.399 78.9814C49.5952 79.6572 49.8568 79.8534 50.5326 79.8534C57.683 79.8316 64.8334 79.8316 71.9838 79.8534C72.7032 79.8534 72.9866 79.6572 73.1174 78.916C74.687 69.8255 76.3002 60.7349 77.9134 51.6661C78.2404 49.8131 78.5456 47.9601 78.8944 45.9545ZM41.3984 87.8322C44.4286 87.8105 47.3934 85.5868 48.2872 82.6874C49.4862 78.8288 46.8484 75.5153 42.9898 76.0167C39.8724 76.4091 37.2128 78.9161 36.6024 82.0117C35.9702 85.1945 38.172 87.8759 41.3984 87.8322Z" fill="#424242"/>
<path d="M81.5101 80.9217C79.1993 80.9217 76.9757 80.9217 74.6213 80.9217C74.8829 79.3521 75.1227 77.8915 75.3843 76.4527C76.6487 69.3459 77.9131 62.2391 79.1557 55.1105C79.2865 54.3039 79.5263 53.9987 80.4201 54.0205C83.2105 54.0859 86.0009 54.0641 88.7913 54.0423C90.1865 54.0205 91.2547 54.5437 92.1049 55.6773C94.5683 58.9691 97.0535 62.2609 99.5823 65.4873C100.236 66.3157 101.13 67.0133 102.002 67.6455C104.03 69.1279 104.596 71.1117 104.204 73.4661C103.964 74.9485 103.659 76.4091 103.376 77.8697C102.983 79.8317 101.741 80.8781 99.7349 80.8999C98.6231 80.9217 97.4895 80.9435 96.3777 80.8999C95.7237 80.8781 95.5275 81.0961 95.4621 81.7283C94.9389 85.6959 91.3637 88.8787 87.4397 88.9441C83.5375 89.0095 80.9651 86.2191 81.3575 82.3169C81.3793 81.9027 81.4447 81.4885 81.5101 80.9217ZM75.9075 79.8317C77.6951 79.8317 79.3737 79.8099 81.0305 79.8535C81.6845 79.8753 82.0769 79.6791 82.4257 79.0905C83.6029 77.1067 85.3251 75.7987 87.5487 75.1665C91.0149 74.1855 94.5029 75.8205 95.3313 79.2649C95.4403 79.7445 95.7019 79.8535 96.1379 79.8317C97.3369 79.8099 98.5577 79.8317 99.7567 79.8099C101.13 79.7881 102.024 79.0251 102.264 77.6735C102.525 76.3219 102.722 74.9485 103.027 73.5969C103.55 71.3733 102.961 69.6075 101.065 68.2995C100.324 67.7763 99.5387 67.2313 98.9937 66.5337C96.3777 63.1983 93.8271 59.8193 91.2983 56.4403C90.6007 55.5029 89.7723 55.0669 88.6169 55.0669C86.1535 55.0887 83.6683 55.1105 81.2049 55.0451C80.3765 55.0233 80.1803 55.3721 80.0495 56.0697C78.9813 62.2391 77.8695 68.3867 76.8013 74.5561C76.5179 76.2783 76.2345 77.9787 75.9075 79.8317ZM87.2435 87.8323C90.5353 87.8323 93.7399 85.1727 94.3503 81.9463C95.0043 78.4147 92.4973 75.6461 88.9657 76.0167C85.8265 76.3219 83.0143 78.9597 82.4475 82.0771C81.8807 85.2163 84.0389 87.8323 87.2435 87.8323Z" fill="#424242"/>
<path d="M100.476 60.277C100.258 59.9718 100.084 59.7103 99.9094 59.4487C107.082 52.5599 109.044 44.6464 104.226 35.7084C100.716 29.1902 93.1732 25.7022 85.783 26.7704C78.8288 27.7732 72.158 32.918 70.305 41.5072C69.978 41.3982 69.651 41.311 69.324 41.202C69.869 35.9264 74.883 27.8604 84.2352 25.8548C93.6092 23.8492 102.874 28.6888 106.515 37.5396C109.959 45.8672 107.125 55.2848 100.476 60.277Z" fill="#424242"/>
<path d="M99.2554 34.2042C96.7266 37.1036 94.2196 40.0248 91.669 42.9024C91.3202 43.3166 91.1894 43.6654 91.3202 44.2322C91.8216 46.3468 90.1212 48.287 87.963 47.8946C87.1128 47.742 86.6332 47.96 86.1754 48.5486C85.9356 48.8538 85.7394 49.1808 85.5214 49.486C84.8892 48.8538 84.475 48.4396 83.9954 47.96C84.1044 47.8292 84.2352 47.633 84.3878 47.5022C85.1508 46.87 85.5432 46.216 85.3688 45.0606C85.0636 43.0986 87.0474 41.5072 88.9876 41.9868C89.6198 42.1394 90.0122 42.0086 90.47 41.6162C91.887 40.33 93.3476 39.0874 94.7864 37.8448C96.2252 36.6022 97.6858 35.3596 99.1246 34.0952C99.2118 34.117 99.2336 34.1606 99.2554 34.2042ZM89.707 44.9298C89.707 44.2322 89.1184 43.6436 88.4208 43.6436C87.7014 43.6436 87.1346 44.2104 87.1346 44.9298C87.1346 45.6492 87.6796 46.1942 88.4208 46.1942C89.1184 46.1942 89.707 45.6274 89.707 44.9298Z" fill="#424242"/>
<path d="M2.28906 63.0674C10.2461 62.8494 18.2031 62.6096 26.1383 62.3916C26.4217 63.7214 26.2691 63.8958 25.0701 63.874C18.0069 63.6778 10.9655 63.5034 3.90226 63.3072C3.37906 63.2854 2.85586 63.2418 2.31086 63.22C2.31086 63.1546 2.31086 63.111 2.28906 63.0674Z" fill="#424242"/>
<path d="M89.5981 24.5469C88.7479 24.5469 87.9413 24.5469 87.0257 24.5469C87.0039 24.0673 86.9821 23.5877 86.9603 23.0427C86.7423 23.0209 86.5461 22.9773 86.3499 22.9555C86.2845 22.9555 86.2191 22.9773 86.1755 22.9555C85.1073 22.4977 85.8485 21.5821 85.6523 20.8845C85.5433 20.4703 85.6305 20.0343 86.2409 20.0343C87.6143 20.0343 89.0095 20.0125 90.3829 20.0561C90.5791 20.0561 90.9279 20.2305 90.9279 20.3613C90.9715 21.1243 91.0369 21.9091 90.9061 22.6285C90.8625 22.8465 90.2085 22.9555 89.7071 23.1735C89.6853 23.5441 89.6417 24.0237 89.5981 24.5469Z" fill="#424242"/>
<path d="M25.3316 66.9915C25.3316 67.4057 25.3316 67.7109 25.3316 68.1251C17.549 67.9507 9.81004 67.7981 2.07104 67.6237C2.07104 67.5801 2.07104 67.5365 2.07104 67.4929C9.81004 67.3403 17.549 67.1659 25.3316 66.9915Z" fill="#424242"/>
<path d="M1.02466 76.1692C8.63286 75.9948 16.2193 75.8422 23.8275 75.6678C23.9147 76.3654 23.9365 76.845 23.1299 76.8232C15.8705 76.627 8.61106 76.4526 1.37346 76.2782C1.26446 76.2782 1.15546 76.2564 1.02466 76.2564C1.02466 76.2128 1.02466 76.191 1.02466 76.1692Z" fill="#424242"/>
<path d="M5.36294 71.7874C5.73354 71.7874 6.10414 71.7874 6.45294 71.7874C12.1209 71.6566 17.7889 71.5258 23.4351 71.395C23.6095 71.395 23.8275 71.3296 23.9583 71.395C24.1981 71.5258 24.5033 71.7002 24.5469 71.8964C24.6777 72.3542 24.3725 72.5068 23.9365 72.485C22.2361 72.4196 20.5357 72.3978 18.8353 72.3542C14.6715 72.2452 10.5077 72.158 6.32214 72.049C5.99514 72.049 5.64634 72.0054 5.31934 71.9836C5.36294 71.9182 5.36294 71.8528 5.36294 71.7874Z" fill="#424242"/>
<path d="M8.8291 58.7511C14.8895 58.5985 20.9717 58.4241 27.1193 58.2715C27.0539 58.6857 26.9885 58.9909 26.9231 59.4051C20.8845 59.2525 14.8677 59.0999 8.8509 58.9473C8.8291 58.8819 8.8291 58.8165 8.8291 58.7511Z" fill="#424242"/>
<path d="M9.65747 54.3039C15.6961 54.1513 21.7347 53.9769 27.8605 53.8025C27.8387 54.1731 27.8169 54.4783 27.7951 54.9143C21.7129 54.7399 15.6961 54.5873 9.65747 54.4347C9.65747 54.3911 9.65747 54.3475 9.65747 54.3039Z" fill="#424242"/>
<path d="M13.6469 49.9003C18.6391 49.7477 23.6095 49.5951 28.7325 49.4207C28.6453 49.8567 28.5799 50.1619 28.5145 50.5543C23.5005 50.3799 18.5519 50.2055 13.6033 50.0529C13.6033 49.9875 13.6251 49.9439 13.6469 49.9003Z" fill="#424242"/>
<path d="M38.4553 82.4258C38.5425 79.679 41.1585 77.499 43.8835 77.935C45.5621 78.1966 46.7611 79.7226 46.6739 81.4666C46.5431 83.9518 44.2977 86.0446 41.8125 85.9792C39.8287 85.9356 38.3899 84.4096 38.4553 82.4258ZM43.1423 78.9596C41.3329 78.9596 39.5671 80.6818 39.5235 82.4912C39.5017 83.8428 40.5263 84.8674 41.8997 84.8892C43.7091 84.911 45.5839 83.1016 45.5621 81.2922C45.5839 79.9624 44.5375 78.9596 43.1423 78.9596Z" fill="#424242"/>
<path d="M79.8098 67.5146C80.115 65.7706 80.4202 64.0702 80.7036 62.3698C80.987 60.7784 81.2922 59.187 81.532 57.5956C81.6192 57.0724 81.7936 56.8326 82.3604 56.8544C83.9518 56.898 85.5432 56.8326 87.1346 56.8762C88.6388 56.9198 89.8378 57.552 90.688 58.8164C91.8216 60.495 92.977 62.1736 94.0888 63.8522C95.1788 65.509 94.1542 67.58 92.1704 67.6018C88.1374 67.6454 84.1044 67.6018 80.0932 67.6018C80.0496 67.6236 80.006 67.58 79.8098 67.5146ZM81.096 66.5554C81.4884 66.5554 81.7718 66.5554 82.0552 66.5554C85.2598 66.5554 88.4644 66.5336 91.6472 66.5554C92.3448 66.5554 92.9116 66.4028 93.2822 65.7706C93.6746 65.0948 93.2604 64.6152 92.9116 64.092C91.887 62.5878 90.8624 61.0836 89.8596 59.5794C89.2492 58.6856 88.4862 58.0316 87.3526 57.988C85.9356 57.9444 84.5404 57.9444 83.1234 57.988C82.9054 57.988 82.5566 58.315 82.4912 58.5548C82.2732 59.3832 82.1642 60.2334 82.0116 61.0618C81.7282 62.8712 81.423 64.637 81.096 66.5554Z" fill="#424242"/>
<path d="M89.1402 77.8914C91.451 77.935 92.9334 79.8752 92.432 82.186C91.9742 84.2352 90.1648 85.8048 88.0938 85.9792C85.7612 86.1754 83.9736 84.2134 84.366 81.8808C84.7148 79.5918 86.8294 77.8478 89.1402 77.8914ZM91.4074 81.3576C91.4292 79.8534 90.2302 78.7852 88.7042 78.9596C87.2 79.134 85.783 80.4202 85.456 81.9026C85.1072 83.4722 86.1536 84.8238 87.7232 84.8892C89.5326 84.9546 91.3856 83.2106 91.4074 81.3576Z" fill="#424242"/>
</svg>
