<svg width="15" height="15" viewBox="0 0 15 15" fill="none" xmlns="http://www.w3.org/2000/svg">
<path d="M8.10058 0.624991C8.10058 0.459231 8.16643 0.30026 8.28364 0.183049C8.40085 0.065839 8.55982 -8.97539e-06 8.72558 -8.97539e-06C10.3826 0.00181077 11.9713 0.660875 13.143 1.83258C14.3147 3.00429 14.9738 4.59295 14.9756 6.24999C14.9756 6.41575 14.9097 6.57472 14.7925 6.69193C14.6753 6.80914 14.5163 6.87499 14.3506 6.87499C14.1848 6.87499 14.0258 6.80914 13.9086 6.69193C13.7914 6.57472 13.7256 6.41575 13.7256 6.24999C13.7241 4.92437 13.1968 3.65346 12.2595 2.7161C11.3221 1.77874 10.0512 1.25148 8.72558 1.24999C8.55982 1.24999 8.40085 1.18414 8.28364 1.06693C8.16643 0.949722 8.10058 0.790751 8.10058 0.624991ZM8.72558 3.74999C9.38862 3.74999 10.0245 4.01338 10.4933 4.48222C10.9622 4.95106 11.2256 5.58695 11.2256 6.24999C11.2256 6.41575 11.2914 6.57472 11.4086 6.69193C11.5258 6.80914 11.6848 6.87499 11.8506 6.87499C12.0163 6.87499 12.1753 6.80914 12.2925 6.69193C12.4097 6.57472 12.4756 6.41575 12.4756 6.24999C12.4746 5.25573 12.0792 4.30248 11.3761 3.59944C10.6731 2.89639 9.71984 2.50098 8.72558 2.49999C8.55982 2.49999 8.40085 2.56584 8.28364 2.68305C8.16643 2.80026 8.10058 2.95923 8.10058 3.12499C8.10058 3.29075 8.16643 3.44972 8.28364 3.56693C8.40085 3.68414 8.55982 3.74999 8.72558 3.74999ZM14.4087 10.4619C14.7709 10.8251 14.9743 11.3171 14.9743 11.83C14.9743 12.3429 14.7709 12.8349 14.4087 13.1981L13.84 13.8537C8.7212 18.7544 -3.73505 6.30124 1.08995 1.16624L1.8087 0.541241C2.17231 0.189164 2.65991 -0.0056033 3.16602 -0.000924699C3.67213 0.0037539 4.15604 0.207502 4.51308 0.566241C4.53245 0.585616 5.69058 2.08999 5.69058 2.08999C6.03422 2.45101 6.22552 2.93057 6.2247 3.42899C6.22389 3.92741 6.03102 4.40635 5.6862 4.76624L4.96245 5.67624C5.36298 6.64944 5.95187 7.53389 6.69527 8.2788C7.43867 9.0237 8.32194 9.61437 9.29433 10.0169L10.21 9.28874C10.5699 8.94419 11.0487 8.75155 11.547 8.75085C12.0453 8.75015 12.5247 8.94145 12.8856 9.28499C12.8856 9.28499 14.3893 10.4425 14.4087 10.4619ZM13.5487 11.3706C13.5487 11.3706 12.0531 10.22 12.0337 10.2006C11.9049 10.0729 11.731 10.0013 11.5496 10.0013C11.3683 10.0013 11.1943 10.0729 11.0656 10.2006C11.0487 10.2181 9.78808 11.2225 9.78808 11.2225C9.70313 11.2901 9.60203 11.3344 9.49473 11.3511C9.38744 11.3677 9.27766 11.3562 9.1762 11.3175C7.91649 10.8485 6.77229 10.1142 5.8211 9.16441C4.86991 8.21463 4.13395 7.07151 3.66308 5.81249C3.62133 5.70965 3.60771 5.59755 3.62364 5.4877C3.63957 5.37786 3.68446 5.27424 3.7537 5.18749C3.7537 5.18749 4.75808 3.92624 4.77495 3.90999C4.90262 3.78123 4.97425 3.60725 4.97425 3.42593C4.97425 3.24461 4.90262 3.07062 4.77495 2.94187C4.75558 2.92312 3.60495 1.42624 3.60495 1.42624C3.47426 1.30906 3.3037 1.2463 3.12823 1.25083C2.95276 1.25536 2.78567 1.32684 2.6612 1.45062L1.94245 2.07562C-1.5838 6.31562 9.21058 16.5112 12.9262 13L13.4956 12.3437C13.629 12.2202 13.7091 12.0495 13.7191 11.8679C13.729 11.6863 13.6679 11.508 13.5487 11.3706Z" fill="white"/>
</svg>
