<svg width="120" height="50" viewBox="0 0 120 50" fill="none" xmlns="http://www.w3.org/2000/svg">
<circle cx="25" cy="25" r="25" fill="#9B6D44"/>
<path d="M32.1985 27.2384C32.14 27.2104 29.9529 26.1334 29.5643 25.9935C29.4056 25.9365 29.2357 25.8809 29.0549 25.8809C28.7596 25.8809 28.5115 26.0281 28.3182 26.3172C28.0998 26.6419 27.4384 27.415 27.234 27.646C27.2073 27.6764 27.1709 27.7129 27.1491 27.7129C27.1295 27.7129 26.791 27.5735 26.6886 27.529C24.3424 26.5099 22.5616 24.0591 22.3174 23.6458C22.2826 23.5864 22.2811 23.5594 22.2808 23.5594C22.2894 23.528 22.3683 23.4489 22.409 23.4081C22.5281 23.2902 22.6572 23.1348 22.7821 22.9846C22.8412 22.9134 22.9004 22.8421 22.9585 22.7748C23.1397 22.5641 23.2204 22.4004 23.3139 22.2109L23.3629 22.1124C23.5912 21.6588 23.3962 21.276 23.3332 21.1524C23.2814 21.049 22.358 18.8202 22.2598 18.5861C22.0237 18.021 21.7117 17.7579 21.2782 17.7579C21.2379 17.7579 21.2782 17.7579 21.1095 17.765C20.904 17.7737 19.7854 17.921 19.2908 18.2328C18.7662 18.5635 17.8789 19.6175 17.8789 21.4713C17.8789 23.1397 18.9377 24.715 19.3923 25.3141C19.4035 25.3292 19.4243 25.3599 19.4544 25.4039C21.1953 27.9463 23.3655 29.8305 25.5655 30.7094C27.6835 31.5554 28.6865 31.6532 29.2567 31.6532H29.2568C29.4964 31.6532 29.6882 31.6344 29.8574 31.6177L29.9647 31.6075C30.6964 31.5426 32.3043 30.7095 32.6701 29.6931C32.9582 28.8925 33.0342 28.0178 32.8425 27.7004C32.7112 27.4846 32.4849 27.376 32.1985 27.2384Z" fill="white"/>
<path d="M25.2663 10C17.1413 10 10.5312 16.5605 10.5312 24.6243C10.5312 27.2325 11.2292 29.7855 12.5514 32.0199L10.0206 39.4853C9.97348 39.6245 10.0085 39.7784 10.1115 39.8832C10.1858 39.9591 10.2866 40 10.3896 40C10.429 40 10.4688 39.9941 10.5075 39.9817L18.292 37.508C20.4222 38.6462 22.8298 39.247 25.2664 39.247C33.3905 39.2471 40 32.6873 40 24.6243C40 16.5605 33.3905 10 25.2663 10ZM25.2663 36.2007C22.9735 36.2007 20.7528 35.5387 18.8439 34.2861C18.7797 34.2439 18.7052 34.2223 18.6302 34.2223C18.5906 34.2223 18.5509 34.2283 18.5122 34.2406L14.6127 35.4801L15.8715 31.7663C15.9122 31.6461 15.8919 31.5135 15.8169 31.411C14.3632 29.4248 13.5948 27.0781 13.5948 24.6243C13.5948 18.2403 18.8306 13.0464 25.2662 13.0464C31.701 13.0464 36.9362 18.2403 36.9362 24.6243C36.9363 31.0076 31.7012 36.2007 25.2663 36.2007Z" fill="white"/>
<circle cx="95" cy="25" r="25" fill="#9B6D44"/>
<path d="M101.721 11H88.2787C83.7138 11 80 14.714 80 19.2789V32.7211C80 37.2862 83.7138 41 88.2787 41H101.721C106.286 41 110 37.286 110 32.7211V19.2789C110 14.714 106.286 11 101.721 11ZM107.338 32.7211C107.338 35.8185 104.818 38.3383 101.721 38.3383H88.2787C85.1815 38.3384 82.6617 35.8185 82.6617 32.7211V19.2789C82.6617 16.1817 85.1815 13.6617 88.2787 13.6617H101.721C104.818 13.6617 107.338 16.1817 107.338 19.2789V32.7211H107.338Z" fill="white"/>
<path d="M95.0003 18.2701C90.7377 18.2701 87.27 21.7378 87.27 26.0004C87.27 30.2627 90.7377 33.7302 95.0003 33.7302C99.2628 33.7302 102.73 30.2627 102.73 26.0004C102.73 21.7378 99.2628 18.2701 95.0003 18.2701ZM95.0003 31.0683C92.2056 31.0683 89.9318 28.7948 89.9318 26.0002C89.9318 23.2053 92.2054 20.9317 95.0003 20.9317C97.7951 20.9317 100.069 23.2053 100.069 26.0002C100.069 28.7948 97.7949 31.0683 95.0003 31.0683Z" fill="white"/>
<path d="M103.054 16.0131C102.542 16.0131 102.038 16.2207 101.676 16.5845C101.312 16.9465 101.103 17.4505 101.103 17.9651C101.103 18.4781 101.312 18.9819 101.676 19.3456C102.038 19.7076 102.542 19.917 103.054 19.917C103.569 19.917 104.071 19.7076 104.435 19.3456C104.799 18.9819 105.006 18.4779 105.006 17.9651C105.006 17.4505 104.799 16.9465 104.435 16.5845C104.073 16.2207 103.569 16.0131 103.054 16.0131Z" fill="white"/>
</svg>
